<svg width="271" height="345" viewBox="0 0 271 345" fill="none" xmlns="http://www.w3.org/2000/svg">
<g clip-path="url(#clip0_104_56)">
<path d="M216.676 177.437C216.993 172.291 218.313 167.256 220.562 162.615L226.898 149.537C228.231 146.786 228.924 143.769 228.924 140.713V139.587C228.924 135.141 229.771 130.736 231.42 126.607C232.769 123.229 236.7 121.703 239.975 123.287L240.442 123.513C242.775 124.641 244.257 127.003 244.257 129.595V136.007C244.257 145.958 242.352 155.817 238.647 165.053L232.269 180.949C228.846 189.479 216.111 186.611 216.676 177.437Z" fill="#559C4F" stroke="#32742D" stroke-width="2"/>
<path d="M47.5489 177.08C47.2317 171.933 45.9118 166.898 43.6634 162.258L37.3266 149.18C35.9938 146.429 35.3014 143.412 35.3014 140.355V139.23C35.3014 134.784 34.4543 130.379 32.8053 126.25C31.4562 122.872 27.5253 121.346 24.2504 122.93L23.7833 123.155C21.4505 124.283 19.9685 126.646 19.9685 129.237V135.65C19.9685 145.601 21.8726 155.46 25.5782 164.695L31.9566 180.592C35.3791 189.122 48.1142 186.254 47.5489 177.08Z" fill="#559C4F" stroke="#32742D" stroke-width="2"/>
<g clip-path="url(#clip1_104_56)">
<path d="M123.413 67.6636C105.976 70.1335 91.1916 79.4429 81.3357 94.1669C75.1757 103.381 70.6268 112.976 62.8558 133.494C59.3494 142.614 51.9574 159.523 46.2713 171.017C30.5397 203.03 27.3176 213.574 26.5594 236.183C26.1804 247.962 26.3699 252.617 27.6967 258.981C32.056 280.83 41.4381 298.119 57.454 313.983C86.9271 343.051 128.625 352.835 166.438 339.441C176.483 335.926 180.085 334.122 189.941 327.757C212.401 313.128 230.122 287.954 235.714 262.971C239.125 247.772 238.557 227.728 234.103 210.914C230.786 198.28 227.185 189.636 216.95 169.117C212.211 159.713 204.914 143.279 200.839 132.544C189.372 102.716 183.496 92.2671 172.693 82.3877C160.468 71.1784 140.661 65.2888 123.413 67.6636ZM148.527 79.2529C156.772 81.8177 165.964 88.1823 171.555 95.1169C177.336 102.051 186.339 120.575 194.016 141.094C197.333 149.738 204.345 165.507 209.652 176.242C222.446 201.795 226.332 213.859 228.132 232.193C232.018 272.66 206.715 312.938 167.48 328.897C154.971 333.932 148.053 335.166 132.416 335.261C119.243 335.356 116.779 335.071 108.534 332.792C84.6526 326.142 64.7512 311.893 51.5784 291.944C40.68 275.51 36.6997 263.446 36.0363 244.162C35.1834 221.269 39.0689 207.02 54.7057 175.292C60.2971 164.082 67.4995 147.838 70.8164 139.194C81.4305 111.361 87.4957 99.8666 96.783 90.6522C102.185 85.2375 112.42 79.7279 120.38 77.828C127.962 76.1181 140.471 76.7831 148.527 79.2529Z" fill="#32742D"/>
<path d="M124.513 76.8916C108.283 79.2002 94.5231 87.9021 85.3495 101.665C79.6161 110.278 75.3821 119.247 68.1492 138.426C64.8855 146.951 58.0053 162.756 52.7129 173.5C38.0705 203.424 35.0715 213.28 34.3658 234.413C34.013 245.424 34.1894 249.775 35.4243 255.724C39.4819 276.147 48.2144 292.307 63.1213 307.136C90.5537 334.307 129.365 343.453 164.559 330.933C173.909 327.648 177.261 325.961 186.435 320.011C207.34 306.337 223.835 282.806 229.039 259.453C232.214 245.246 231.685 226.511 227.539 210.794C224.452 198.984 221.1 190.904 211.574 171.724C207.163 162.934 200.372 147.572 196.579 137.538C185.906 109.657 180.437 99.8894 170.381 90.6547C159.002 80.177 140.567 74.6717 124.513 76.8916Z" fill="#559C4F"/>
<path d="M126.399 98.9071C112.512 100.881 100.739 108.319 92.8901 120.084C87.9846 127.446 84.362 135.112 78.1735 151.507C75.3812 158.793 69.4945 172.304 64.9664 181.488C52.4384 207.066 49.8725 215.491 49.2687 233.556C48.9668 242.968 49.1178 246.687 50.1743 251.772C53.6459 269.229 61.1174 283.043 73.8718 295.719C97.3428 318.945 130.549 326.762 160.662 316.06C168.662 313.252 171.529 311.81 179.378 306.725C197.265 295.036 211.377 274.922 215.83 254.96C218.547 242.816 218.094 226.801 214.547 213.366C211.906 203.271 209.038 196.364 200.887 179.97C197.114 172.455 191.302 159.324 188.057 150.748C178.925 126.915 174.246 118.566 165.643 110.672C155.907 101.715 140.134 97.0096 126.399 98.9071Z" fill="#C6E8AA"/>
<ellipse cx="133.002" cy="252.381" rx="46.1997" ry="46.3095" fill="#874E3D"/>
<ellipse cx="19.2091" cy="8.18539" rx="19.2091" ry="8.18539" transform="matrix(0.771673 -0.63602 0.634221 0.773152 93.1987 234.068)" fill="#B27563"/>
<path d="M100.619 143.509C99.4613 143.772 96.5261 145.615 95.6166 146.668C94.2937 148.159 93.5082 149.826 93.3015 151.669C93.0948 153.248 93.1775 153.643 93.7562 153.906C94.9965 154.389 95.9473 153.775 96.8568 151.756C99.7507 145.439 107.606 145.351 109.962 151.625C110.665 153.511 111.781 154.345 112.98 153.95C114.758 153.336 113.517 149.08 110.83 146.448C108.474 144.167 107.316 143.597 104.381 143.421C102.851 143.333 101.156 143.377 100.619 143.509Z" fill="#343633"/>
<path d="M161.857 143.78C158.839 144.556 155.65 147.617 154.629 150.765C153.949 152.835 154.417 153.956 155.947 153.956C156.713 153.956 157.223 153.482 158.031 151.843C159.391 149.299 160.922 147.876 163.005 147.316C166.449 146.324 170.021 148.178 171.679 151.843C172.572 153.74 173.55 154.387 174.74 153.913C175.718 153.568 175.888 152.749 175.335 151.11C173.337 145.246 167.81 142.227 161.857 143.78Z" fill="#343633"/>
<path d="M123.096 168.979C122.438 169.257 121.498 170.462 120.934 171.759C119.149 176.577 125.258 184.268 131.931 185.565C139.168 186.862 148.285 180.284 148.285 173.705C148.285 169.442 145.465 168.331 134.187 168.423C128.735 168.423 123.754 168.701 123.096 168.979Z" fill="#343633"/>
<path fill-rule="evenodd" clip-rule="evenodd" d="M144.301 181.386C142.705 179.143 139.985 177.16 137.113 176.608C131.663 175.637 127.078 178.764 126.814 183.313C128.384 184.406 130.137 185.216 131.931 185.565C136.139 186.319 140.984 184.41 144.301 181.386Z" fill="#FF668F"/>
</g>
<path fill-rule="evenodd" clip-rule="evenodd" d="M105.414 53.0233C116.551 52.6585 126.993 58.4328 132.665 67.8752C132.056 68.0944 131.43 68.2836 130.789 68.441C120.345 71.0071 109.54 64.2248 105.414 53.0233Z" fill="#559C4F"/>
<path fill-rule="evenodd" clip-rule="evenodd" d="M122.049 27.3333C134.561 36.241 139.416 53.0911 133.637 68.1651C131.782 67.83 129.966 67.2327 128.228 66.3563C116.729 60.5577 112.997 44.7357 119.893 31.0169C120.543 29.7227 121.265 28.4934 122.049 27.3333Z" fill="#A6D388"/>
<path fill-rule="evenodd" clip-rule="evenodd" d="M161.603 43.8772C158.864 57.5433 147.152 67.7528 133.161 68.4717C132.784 66.8071 132.628 65.0785 132.722 63.3124C133.34 51.6278 144.625 42.7281 157.926 43.4344C159.181 43.5011 160.408 43.6508 161.603 43.8772Z" fill="#3E721D"/>
</g>
<defs>
<clipPath id="clip0_104_56">
<rect width="271" height="345" fill="white"/>
</clipPath>
<clipPath id="clip1_104_56">
<rect width="211.808" height="277.857" fill="white" transform="translate(26.387 67.1428)"/>
</clipPath>
</defs>
</svg>
