<svg width="68" height="74" viewBox="0 0 68 74" fill="none" xmlns="http://www.w3.org/2000/svg">
<path d="M66.7763 40.2372C65.1337 38.4698 62.0736 38.8457 60.0271 40.3402C58.1569 41.8788 45.3715 50.1741 45.3715 50.1741H29.832L29.783 50.1983C28.9645 50.1715 28.3249 49.4931 28.3491 48.6864C28.379 47.8782 29.0675 47.2454 29.8806 47.2734L29.8318 47.2454C32.61 47.2454 41.281 47.2454 41.281 47.2454C43.5794 47.2454 45.4444 45.407 45.4444 43.1393C45.4444 40.8674 43.5794 39.0277 41.281 39.0277C39.1993 39.0277 35.0386 39.0277 24.6329 39.0277C14.2245 39.0277 10.9286 43.3106 7.28575 46.9043L0.677602 52.6041C0.24656 52.9734 0 53.5045 0 54.0692V73.0107C0 73.2608 0.151841 73.4923 0.384849 73.5981C0.618002 73.7025 0.891811 73.6662 1.08693 73.4991L13.8588 62.6883C14.3088 62.311 14.9104 62.1504 15.4906 62.2534L35.3966 65.8258C36.7843 66.0747 38.2128 65.7603 39.3701 64.9563C39.3701 64.9563 64.773 47.516 66.6514 45.9732C68.4378 44.3542 68.4188 42.0046 66.7763 40.2372Z" fill="#559C4F"/>
<path d="M28.2624 31.4097C31.3985 33.5305 35.345 35.085 35.345 35.085C35.7082 35.2016 36.2693 35.3031 36.4645 35.3031C36.657 35.3031 37.218 35.2016 37.5813 35.085C37.5813 35.085 41.5251 33.5305 44.6637 31.4097C49.4396 28.1958 57.1863 21.8873 57.1863 12.994C57.1863 3.97343 52.0173 -0.114107 46.3308 0.00242049C41.994 0.0799618 39.4325 2.61005 37.714 5.10403C37.3996 5.56698 36.9306 5.86262 36.4645 5.8747C35.9955 5.86262 35.5266 5.56698 35.2149 5.10403C33.4964 2.61005 30.9323 0.0799618 26.5955 0.00242049C20.9061 -0.114107 15.7427 3.97343 15.7427 12.994C15.7427 21.8873 23.4864 28.196 28.2624 31.4097ZM23.9988 5.65114C24.4351 5.12274 24.9799 4.67461 25.6033 4.30114C26.2187 3.93458 27.0183 4.12851 27.3896 4.73604C27.7638 5.34342 27.5657 6.13423 26.9504 6.49949C26.5412 6.74564 26.2403 7.00257 26.0179 7.27404C25.5653 7.82532 24.744 7.90689 24.1856 7.45876C23.6301 7.01063 23.5462 6.20256 23.9988 5.65114ZM20.9494 13.8383C20.9494 12.9794 21.0389 12.182 21.2313 11.4488C21.4128 10.761 22.1258 10.3502 22.8198 10.5309C23.5163 10.7089 23.9309 11.4114 23.7521 12.0976C23.6247 12.5739 23.5516 13.1545 23.5516 13.8383C23.5516 14.5153 23.6221 15.294 23.771 16.1664C24.0096 17.5633 24.6114 18.8611 25.4921 20.0799C25.9096 20.6565 25.7741 21.4592 25.1886 21.8714C24.6005 22.2834 23.79 22.1496 23.3726 21.5717C22.3074 20.1039 21.5186 18.4368 21.2041 16.5945C21.0361 15.6072 20.9494 14.692 20.9494 13.8383Z" fill="#559C4F"/>
</svg>
