<svg width="44" height="44" viewBox="0 0 44 44" fill="none" xmlns="http://www.w3.org/2000/svg">
<path d="M22 38.5C21.5726 38.5 21.1628 38.3302 20.8606 38.0281C20.5584 37.7259 20.3887 37.316 20.3887 36.8887V7.11133C20.3887 6.68398 20.5584 6.27413 20.8606 5.97195C21.1628 5.66976 21.5726 5.5 22 5.5C22.4274 5.5 22.8372 5.66976 23.1394 5.97195C23.4416 6.27413 23.6113 6.68398 23.6113 7.11133V36.8887C23.6113 37.316 23.4416 37.7259 23.1394 38.0281C22.8372 38.3302 22.4274 38.5 22 38.5Z" fill="#343633"/>
<path d="M36.8887 23.6113H7.11133C6.68398 23.6113 6.27413 23.4416 5.97195 23.1394C5.66976 22.8372 5.5 22.4274 5.5 22C5.5 21.5726 5.66976 21.1628 5.97195 20.8606C6.27413 20.5584 6.68398 20.3887 7.11133 20.3887H36.8887C37.316 20.3887 37.7259 20.5584 38.0281 20.8606C38.3302 21.1628 38.5 21.5726 38.5 22C38.5 22.4274 38.3302 22.8372 38.0281 23.1394C37.7259 23.4416 37.316 23.6113 36.8887 23.6113Z" fill="#343633"/>
</svg>
