<svg width="20" height="30" viewBox="0 0 20 30" fill="none" xmlns="http://www.w3.org/2000/svg">
<g clip-path="url(#clip0_139_403)">
<path d="M16.373 0.108491C16.0797 0.214009 15.113 1.04056 8.18578 7.1254C1.83864 12.7002 0.291863 14.0896 0.165187 14.324C0.0451785 14.5409 0.00517559 14.7168 0.00517559 14.9982C0.00517559 15.772 -0.488194 15.2913 8.15911 22.8885C15.6463 29.4717 15.9864 29.7648 16.3597 29.882C16.8464 30.0403 17.2331 30.0403 17.7198 29.8762C18.0398 29.7765 18.2332 29.6417 18.8799 29.073C19.84 28.2348 19.9666 28.0355 19.9733 27.3965C19.9733 27.0565 19.94 26.863 19.8466 26.693C19.76 26.5348 17.6265 24.612 13.2128 20.7254L6.70567 14.9982L13.2195 9.26507C16.7997 6.11713 19.78 3.44402 19.8466 3.33264C19.9066 3.22126 19.9733 2.93988 19.9933 2.71126C20.04 2.06643 19.86 1.77332 18.8866 0.923321C18.2332 0.354699 18.0398 0.225733 17.7198 0.120215C17.2464 -0.0380609 16.8131 -0.0380609 16.373 0.108491Z" fill="#FAFDF8"/>
</g>
<defs>
<clipPath id="clip0_139_403">
<rect width="20" height="30" fill="white"/>
</clipPath>
</defs>
</svg>
