<svg width="44" height="44" viewBox="0 0 44 44" fill="none" xmlns="http://www.w3.org/2000/svg">
<path d="M44 22C44 34.1503 34.1502 44 22 44C9.84971 44 -2.30999e-05 34.1503 -2.30999e-05 22C-2.30999e-05 9.84974 9.84971 0 22 0C34.1502 0 44 9.84974 44 22Z" fill="#FAFDF8"/>
<g clip-path="url(#clip0_225_133)">
<path d="M26.6985 10.4867C26.4639 10.5711 25.6905 11.2324 20.1487 16.1002C15.071 20.5601 13.8336 21.6716 13.7322 21.8591C13.6362 22.0327 13.6042 22.1733 13.6042 22.3984C13.6042 23.0175 13.2095 22.6329 20.1274 28.7107C26.1172 33.9772 26.3892 34.2117 26.6879 34.3055C27.0772 34.4321 27.3866 34.4321 27.776 34.3008C28.032 34.2211 28.1866 34.1132 28.704 33.6583C29.4721 32.9877 29.5734 32.8283 29.5788 32.3171C29.5788 32.0451 29.5521 31.8903 29.4774 31.7543C29.4081 31.6277 27.7013 30.0895 24.1704 26.9803L18.9646 22.3984L24.1757 17.812C27.0399 15.2936 29.4241 13.1551 29.4774 13.066C29.5254 12.9769 29.5788 12.7518 29.5948 12.5689C29.6321 12.053 29.4881 11.8186 28.7094 11.1386C28.1866 10.6837 28.032 10.5805 27.776 10.4961C27.3973 10.3695 27.0506 10.3695 26.6985 10.4867Z" fill="#343633"/>
</g>
<defs>
<clipPath id="clip0_225_133">
<rect width="16" height="24" fill="white" transform="translate(13.6001 10.3999)"/>
</clipPath>
</defs>
</svg>
