<svg width="683" height="683" viewBox="0 0 683 683" fill="none" xmlns="http://www.w3.org/2000/svg">
<g clip-path="url(#clip0_241_170)">
<path d="M175.333 1.59998C168.8 3.86664 163.067 8.93331 160.133 15.0666C157.733 19.8666 157.333 23.3333 157.333 36.2666V51.6L136.267 52.4C107.067 53.6 91.9998 57.0666 71.5998 67.4666C37.9998 84.5333 13.8665 115.067 3.59984 153.867L0.666504 164.667V367.333V570L3.73317 581.867C6.93317 594.8 15.8665 614.667 22.6665 624.667C28.7998 633.467 43.1998 648.533 52.2665 655.6C69.3332 668.667 93.1998 678.533 114.8 681.333C122.667 682.4 192.933 682.667 348.667 682.4L571.333 682L581.6 679.067C605.467 672.267 623.2 662.667 638.8 648.267C662 626.667 675.467 602.4 680.667 572.533C683.733 555.067 683.733 179.467 680.667 162C675.867 134.8 663.733 111.733 643.333 91.3333C615.333 63.3333 585.333 52.1333 537.867 52H525.6L525.2 34.8C524.667 18.1333 524.533 17.3333 520.667 11.8666C509.067 -4.53336 484.933 -3.20002 475.733 14.5333C472.267 21.0666 472 22.8 472 36.8V52H341.333H210.667V36.8C210.667 22.8 210.4 21.0666 206.933 14.5333C200.933 2.93331 187.333 -2.53336 175.333 1.59998ZM157.333 134C157.333 164.667 158 168.933 164.4 175.733C178 190.4 204 184.533 209.333 165.6C210 162.933 210.667 148.267 210.667 132.933V105.333H341.333H472V132.933C472 148.267 472.667 162.933 473.333 165.6C478.667 184.533 504.667 190.4 518.267 175.733C524.667 168.933 525.333 164.667 525.333 133.867V104.933L544.4 105.733C554.933 106.133 566.8 107.467 571.2 108.667C592.4 114.4 611.467 130.267 621.333 150.267C627.067 162.267 629.333 173.733 629.333 192.933V209.333H341.333H53.3332V192.933C53.3332 173.733 55.5998 162.267 61.3332 150.267C73.0665 126.533 95.0665 110.667 122 106.667C125.6 106.133 135.067 105.6 143.067 105.467L157.333 105.333V134ZM629.333 411.067C629.333 555.333 629.2 559.867 626.667 570C620 595.867 600.133 617.067 574.533 625.467L564.667 628.667H341.333H118L108.133 625.467C96.2665 621.6 80.9332 611.6 73.3332 602.933C65.3332 594 59.0665 582 55.9998 570C53.4665 559.867 53.3332 555.2 53.3332 411.067V262.667H341.333H629.333V411.067Z" fill="#FAFDF8"/>
<path d="M147.333 343.867C138.267 347.867 130.667 358.933 130.667 368C130.667 377.067 138.267 388.133 147.333 392.133C152 394.267 156.533 394.667 183.733 394.667C218 394.667 220.933 394.133 229.067 386.267C231.733 383.6 234.267 379.333 235.467 375.067C237.333 368.667 237.333 367.333 235.467 360.933C234.267 356.667 231.733 352.4 229.067 349.733C220.933 341.867 218 341.333 183.733 341.333C156.533 341.333 152 341.733 147.333 343.867Z" fill="#FAFDF8"/>
<path d="M302.933 344.8C287.467 352.4 283.733 372 295.067 384.933C303.067 394 306 394.667 341.333 394.667C376 394.667 379.333 394 387.2 385.6C398.933 373.067 394.267 351.333 378 343.867C373.333 341.733 368.933 341.333 341.2 341.333C310.133 341.333 309.867 341.333 302.933 344.8Z" fill="#FAFDF8"/>
<path d="M462.666 343.467C440.533 353.067 440.666 383.333 462.933 392.533C466.933 394.267 473.866 394.667 498.933 394.667C526.133 394.667 530.666 394.267 535.333 392.133C544.4 388.133 552 377.067 552 368C552 358.933 544.4 347.867 535.333 343.867C530.666 341.733 526.133 341.333 498.666 341.467C473.6 341.467 466.4 341.867 462.666 343.467Z" fill="#FAFDF8"/>
<path d="M145.6 502.133C130.133 509.733 126.4 529.333 137.733 542.267C145.6 551.333 148.8 552 183.733 552C208.8 552 215.733 551.6 219.733 549.867C237.866 542.4 242.4 519.6 228.4 506.4C220.933 499.2 217.466 498.667 183.6 498.667C152.8 498.667 152.4 498.667 145.6 502.133Z" fill="#FAFDF8"/>
<path d="M306 500.4C296.533 504.133 290.533 511.333 288.667 521.467C286.667 532 293.867 544.667 304.667 549.467C309.333 551.6 313.867 552 341.333 552C376.8 552 380 551.2 387.733 542C398.8 528.533 394 508.667 378 501.2C373.333 499.067 369.067 498.8 341.333 498.8C320.667 498.8 308.667 499.467 306 500.4Z" fill="#FAFDF8"/>
<path d="M462.666 500.8C440.533 510.4 440.666 540.667 462.933 549.867C466.933 551.6 473.866 552 498.933 552C533.866 552 537.066 551.333 544.933 542.267C556.4 529.2 552.4 509.733 536.8 502C530.266 498.8 529.466 498.667 498.8 498.667C473.733 498.8 466.4 499.2 462.666 500.8Z" fill="#FAFDF8"/>
</g>
<defs>
<clipPath id="clip0_241_170">
<rect width="682.667" height="682.667" fill="white"/>
</clipPath>
</defs>
</svg>
