<svg width="11" height="13" viewBox="0 0 11 13" fill="none" xmlns="http://www.w3.org/2000/svg">
<g opacity="0.5" clip-path="url(#clip0_128_675)">
<path d="M8.32677 6.11746C8.51221 5.93372 8.66293 5.7634 8.83549 5.6189C9.0444 5.44063 9.26533 5.27693 9.49683 5.12897C9.79476 4.94242 10.0355 5.03611 10.1227 5.3812C10.244 5.86011 10.3411 6.34531 10.4369 6.83017C10.6161 7.74 10.6601 8.64894 10.3588 9.54468C9.81617 11.158 8.7181 12.1823 7.06172 12.5833C6.43843 12.7349 5.80757 12.8535 5.17175 12.9386C1.97948 13.3617 0.222663 10.8601 0.0270694 8.90148C-0.119584 7.43393 0.340547 6.14263 1.14315 4.97292C1.66925 4.20615 2.32983 3.53171 2.92537 2.81197C3.28713 2.37477 3.65539 1.9416 3.99124 1.48499C4.25512 1.12619 4.37543 0.699508 4.45148 0.260613C4.46892 0.158603 4.52425 0.0669208 4.60641 0.00387385C4.64498 -0.0205673 4.76624 0.076699 4.84549 0.126132C4.97748 0.208373 5.10545 0.297109 5.23584 0.381937C6.70955 1.34043 7.59636 2.71002 8.01902 4.39134C8.14363 4.88677 8.20321 5.39871 8.29232 5.90306C8.30269 5.96218 8.31133 6.02185 8.32677 6.11746ZM4.85684 0.677818C4.71845 1.44898 4.34837 2.06634 3.88405 2.63201C3.43615 3.17792 2.97685 3.71442 2.5203 4.25317C1.79639 5.10735 1.22571 6.04067 0.890675 7.12214C0.146056 9.52581 1.71736 12.5312 4.88434 12.3269C5.74134 12.2718 6.59491 12.2654 7.39939 11.8636C8.69291 11.2177 9.56812 10.2605 9.8731 8.82624C10.0941 7.78701 9.78401 6.8005 9.58853 5.7601C9.05608 6.17846 8.65521 6.64086 8.42227 7.23725C8.37567 7.35654 8.33542 7.47908 8.27937 7.59384C8.2085 7.73884 8.08802 7.82174 7.92191 7.78783C7.73872 7.75035 7.67131 7.61377 7.67759 7.44032C7.68421 7.25717 7.70389 7.07458 7.71392 6.89154C7.80254 5.27282 7.45053 3.7606 6.59343 2.37825C6.16383 1.67705 5.56725 1.09289 4.85684 0.677818Z" fill="black"/>
<path d="M10.304 0.625206C10.3691 0.82079 10.4328 1.01692 10.4999 1.21185C10.6393 1.61634 10.8251 2.01097 10.912 2.42631C11.0906 3.2801 10.6429 3.95113 9.80426 4.17187C9.52086 4.24636 9.32353 4.13994 9.21689 3.87016C9.17029 3.75357 9.11084 3.64253 9.03963 3.5391C8.58326 2.87468 8.47452 2.18615 8.85297 1.44416C9.09908 0.961554 9.46065 0.574402 9.8402 0.202114C9.91014 0.133579 10.0698 0.0887133 10.154 0.121082C10.2403 0.15411 10.2983 0.289854 10.343 0.391858C10.37 0.453346 10.348 0.536254 10.348 0.609522L10.304 0.625206ZM9.76857 1.04357C9.1388 1.66126 8.76765 2.63313 9.59358 3.51862C10.1086 3.36421 10.3078 3.06492 10.2637 2.54389C10.2181 2.00349 9.97421 1.53267 9.76857 1.04368V1.04357Z" fill="black"/>
<path d="M5.81016 7.91251C5.9503 7.5809 6.07926 7.2799 6.20465 6.97737C6.27123 6.81669 6.35708 6.67951 6.55406 6.6746C6.73477 6.67031 6.83624 6.78706 6.91444 6.92991C7.29758 7.62973 7.66485 8.33814 7.82958 9.12668C8.10674 10.4529 7.28469 11.7103 5.97009 12.027C5.06663 12.2446 4.21277 12.0999 3.40985 11.6872C2.49267 11.2158 2.0839 10.3869 2.02487 9.39801C1.91206 7.50554 3.16482 5.59236 4.93712 4.88681C5.07319 4.83265 5.20337 4.75515 5.34418 4.72426C5.45837 4.69921 5.62591 4.68232 5.69452 4.74452C5.7378 4.79327 5.7703 4.85058 5.7899 4.91271C5.80951 4.97485 5.81579 5.04041 5.80834 5.10513C5.77455 5.33848 5.68246 5.56297 5.62095 5.79285C5.40287 6.61174 5.45434 7.23361 5.81016 7.91251ZM5.02469 5.43047C4.97918 5.44754 4.93456 5.46688 4.89099 5.48843C3.4977 6.24633 2.81282 7.47852 2.66445 8.99895C2.53571 10.3161 3.36664 11.3228 4.66873 11.5807C4.73086 11.5967 4.79584 11.5984 4.85869 11.5854C5.27099 11.4654 5.69006 11.3615 6.09007 11.2084C6.85828 10.9144 7.286 10.1478 7.16894 9.33821C7.07983 8.72318 6.82549 8.16666 6.55791 7.61487C6.55241 7.60386 6.52766 7.60265 6.46026 7.57788C6.36695 7.89429 6.264 8.20421 6.18591 8.52021C6.11828 8.79405 5.85871 8.90787 5.62927 8.74113C5.57741 8.70322 5.5325 8.65667 5.49651 8.6035C5.14379 8.07722 4.88691 7.50653 4.88917 6.8671C4.89083 6.39655 4.97481 5.9265 5.02469 5.43058V5.43047Z" fill="black"/>
</g>
<defs>
<clipPath id="clip0_128_675">
<rect width="11" height="13" fill="white"/>
</clipPath>
</defs>
</svg>
