<svg width="35" height="35" viewBox="0 0 35 35" fill="none" xmlns="http://www.w3.org/2000/svg">
<g opacity="0.5">
<path d="M18.5605 6.52832H16.373V18.7039L24.2763 22.4601L25.2153 20.4844L18.5605 17.3215V6.52832Z" fill="#559C4F"/>
<path d="M17.5 1.09375C8.4391 1.09375 1.09375 8.4391 1.09375 17.5C1.09375 26.5609 8.4391 33.9062 17.5 33.9062C26.5609 33.9062 33.9062 26.5609 33.9062 17.5C33.9062 8.4391 26.5609 1.09375 17.5 1.09375ZM17.5 31.7188C9.64722 31.7188 3.28125 25.3528 3.28125 17.5C3.28125 9.64722 9.64722 3.28125 17.5 3.28125C25.3528 3.28125 31.7188 9.64722 31.7188 17.5C31.7188 25.3528 25.3528 31.7188 17.5 31.7188Z" fill="#559C4F"/>
</g>
</svg>
