<svg width="21" height="21" viewBox="0 0 21 21" fill="none" xmlns="http://www.w3.org/2000/svg">
<path fill-rule="evenodd" clip-rule="evenodd" d="M0.384746 0.37533C0.897106 -0.12511 1.72778 -0.12511 2.24012 0.37533L20.6159 18.3235C21.1282 18.824 21.1282 19.6354 20.6159 20.1358C20.1035 20.6362 19.273 20.6362 18.7606 20.1358L0.384746 2.18754C-0.127597 1.6871 -0.127597 0.875753 0.384746 0.37533Z" fill="#686868" fill-opacity="0.71"/>
<path fill-rule="evenodd" clip-rule="evenodd" d="M20.6155 0.375448C21.1279 0.875888 21.1279 1.68724 20.6155 2.18766L2.23963 20.1358C1.72729 20.6362 0.896598 20.6362 0.384255 20.1358C-0.128088 19.6353 -0.128088 18.8239 0.384273 18.3235L18.7603 0.375431C19.2726 -0.124992 20.1032 -0.124975 20.6155 0.375448Z" fill="#686868" fill-opacity="0.71"/>
</svg>
