<svg width="20" height="20" viewBox="0 0 20 20" fill="none" xmlns="http://www.w3.org/2000/svg">
<g clip-path="url(#clip0_126_214)">
<path d="M19.4797 17.0049L11.6373 9.1625L2.47482 0H1.75877L1.61256 0.371523C1.22666 1.35215 1.06178 2.35512 1.1358 3.27188C1.22017 4.31687 1.61717 5.2216 2.28392 5.88836L9.43666 13.0411L10.3801 12.0977L16.9928 19.4919C17.6506 20.1497 18.7828 20.1888 19.4797 19.4919C20.1654 18.8062 20.1654 17.6906 19.4797 17.0049Z" fill="#559C4F"/>
<path d="M6.12219 11.3845L0.5202 16.9865C-0.165425 17.6721 -0.165425 18.7878 0.5202 19.4734C1.17153 20.1248 2.29829 20.1823 3.00711 19.4734L8.60915 13.8714L6.12219 11.3845Z" fill="#559C4F"/>
<path d="M19.1505 3.3301L15.9727 6.50784L15.1437 5.67885L18.3214 2.50108L17.4925 1.67209L14.3147 4.84983L13.4857 4.02084L16.6635 0.843106L15.8346 0.0141602L11.6897 4.15908C11.1826 4.66615 10.8798 5.33944 10.837 6.05498C10.8262 6.23627 10.7851 6.41459 10.7169 6.5842L13.4095 9.27674C13.5791 9.2085 13.7574 9.16745 13.9387 9.15663C14.6542 9.11393 15.3275 8.81108 15.8346 8.30401L19.9795 4.15912L19.1505 3.3301Z" fill="#559C4F"/>
</g>
<defs>
<clipPath id="clip0_126_214">
<rect width="20" height="20" fill="white"/>
</clipPath>
</defs>
</svg>
