<svg width="32" height="29" viewBox="0 0 32 29" fill="none" xmlns="http://www.w3.org/2000/svg">
<path d="M16 29L15.4353 28.5118C3.29412 18.2593 0 14.6465 0 8.78788C0 3.90572 3.76471 0 8.47059 0C12.3294 0 14.4941 2.24579 16 4.00337C17.5059 2.24579 19.6706 0 23.5294 0C28.2353 0 32 3.90572 32 8.78788C32 14.6465 28.7059 18.2593 16.5647 28.5118L16 29ZM8.47059 1.95286C4.8 1.95286 1.88235 4.9798 1.88235 8.78788C1.88235 13.7677 4.89412 17.0875 16 26.4613C27.1059 17.0875 30.1176 13.7677 30.1176 8.78788C30.1176 4.9798 27.2 1.95286 23.5294 1.95286C20.2353 1.95286 18.4471 4.00337 17.0353 5.6633L16 6.93266L14.9647 5.6633C13.5529 4.00337 11.7647 1.95286 8.47059 1.95286Z" fill="#343633"/>
</svg>
