<svg width="16" height="20" viewBox="0 0 16 20" fill="none" xmlns="http://www.w3.org/2000/svg">
<path d="M15.4573 11.7097C15.2282 8.72695 13.8394 6.85777 12.6143 5.20832C11.4798 3.68129 10.5 2.36261 10.5 0.41738C10.5 0.26113 10.4125 0.118318 10.2738 0.0467163C10.1346 -0.025315 9.96734 -0.0135181 9.84082 0.078435C8.00082 1.39508 6.46559 3.61418 5.9293 5.73152C5.55699 7.20562 5.50773 8.86281 5.50082 9.9573C3.8016 9.59437 3.41668 7.05265 3.41262 7.02496C3.39348 6.89312 3.31293 6.7784 3.19574 6.71574C3.07734 6.6539 2.93816 6.64941 2.81813 6.70883C2.72902 6.75195 0.631015 7.81797 0.508945 12.0743C0.50039 12.2159 0.5 12.3579 0.5 12.4999C0.5 16.6349 3.86465 19.9994 8 19.9994C8.0057 19.9998 8.0118 20.0006 8.01668 19.9994C8.01832 19.9994 8.01992 19.9994 8.02195 19.9994C12.1471 19.9875 15.5 16.6276 15.5 12.4999C15.5 12.292 15.4573 11.7097 15.4573 11.7097ZM8 19.1661C6.62141 19.1661 5.5 17.9715 5.5 16.5031C5.5 16.4531 5.49961 16.4026 5.50324 16.3408C5.51992 15.7215 5.63754 15.2988 5.76652 15.0176C6.00824 15.5368 6.44035 16.0141 7.14227 16.0141C7.37258 16.0141 7.55895 15.8277 7.55895 15.5974C7.55895 15.0042 7.57117 14.3198 7.71887 13.7022C7.85031 13.1545 8.16441 12.5719 8.56238 12.1048C8.73938 12.7111 9.08445 13.2017 9.42137 13.6806C9.90355 14.3658 10.402 15.0742 10.4895 16.2822C10.4948 16.3538 10.5001 16.4258 10.5001 16.5031C10.5 17.9715 9.37859 19.1661 8 19.1661Z" fill="#FFA935"/>
</svg>
