<svg width="35" height="31" viewBox="0 0 35 31" fill="none" xmlns="http://www.w3.org/2000/svg">
<path d="M17.3335 30.1167L16.7335 29.6167C3.8335 19.1167 0.333496 15.4167 0.333496 9.41675C0.333496 4.41675 4.3335 0.416748 9.3335 0.416748C13.4335 0.416748 15.7335 2.71675 17.3335 4.51675C18.9335 2.71675 21.2335 0.416748 25.3335 0.416748C30.3335 0.416748 34.3335 4.41675 34.3335 9.41675C34.3335 15.4167 30.8335 19.1167 17.9335 29.6167L17.3335 30.1167ZM9.3335 2.41675C5.4335 2.41675 2.3335 5.51675 2.3335 9.41675C2.3335 14.5167 5.5335 17.9167 17.3335 27.5167C29.1335 17.9167 32.3335 14.5167 32.3335 9.41675C32.3335 5.51675 29.2335 2.41675 25.3335 2.41675C21.8335 2.41675 19.9335 4.51675 18.4335 6.21675L17.3335 7.51675L16.2335 6.21675C14.7335 4.51675 12.8335 2.41675 9.3335 2.41675Z" fill="#FAFDF8"/>
</svg>
