<svg width="50" height="50" viewBox="0 0 50 50" fill="none" xmlns="http://www.w3.org/2000/svg">
<g opacity="0.5" clip-path="url(#clip0_142_128)">
<rect width="50" height="50" rx="7" fill="#343633"/>
<path d="M25.3335 40.1167L24.7335 39.6167C11.8335 29.1167 8.3335 25.4167 8.3335 19.4167C8.3335 14.4167 12.3335 10.4167 17.3335 10.4167C21.4335 10.4167 23.7335 12.7167 25.3335 14.5167C26.9335 12.7167 29.2335 10.4167 33.3335 10.4167C38.3335 10.4167 42.3335 14.4167 42.3335 19.4167C42.3335 25.4167 38.8335 29.1167 25.9335 39.6167L25.3335 40.1167ZM17.3335 12.4167C13.4335 12.4167 10.3335 15.5167 10.3335 19.4167C10.3335 24.5167 13.5335 27.9167 25.3335 37.5167C37.1335 27.9167 40.3335 24.5167 40.3335 19.4167C40.3335 15.5167 37.2335 12.4167 33.3335 12.4167C29.8335 12.4167 27.9335 14.5167 26.4335 16.2167L25.3335 17.5167L24.2335 16.2167C22.7335 14.5167 20.8335 12.4167 17.3335 12.4167Z" fill="#FAFDF8"/>
</g>
<defs>
<clipPath id="clip0_142_128">
<rect width="50" height="50" fill="white"/>
</clipPath>
</defs>
</svg>
