<svg width="20" height="20" viewBox="0 0 20 20" fill="none" xmlns="http://www.w3.org/2000/svg">
<path fill-rule="evenodd" clip-rule="evenodd" d="M5.87715 0.0603593C4.81262 0.108754 4.08579 0.277689 3.44968 0.525019C2.79196 0.780385 2.2346 1.12254 1.67868 1.67845C1.12239 2.23437 0.780585 2.79189 0.525211 3.44959C0.277875 4.08586 0.108757 4.81267 0.0603609 5.877C0.0116079 6.94364 0 7.28401 0 10C0 12.716 0.0116079 13.0562 0.0603609 14.123C0.108757 15.1873 0.277875 15.9141 0.525211 16.5501C0.780585 17.2078 1.12239 17.7656 1.67868 18.3214C2.2346 18.8775 2.79196 19.2193 3.44968 19.475C4.08579 19.7223 4.81262 19.8912 5.87715 19.9396C6.94383 19.9884 7.28421 20 10.0001 20C12.7162 20 13.0565 19.9884 14.1232 19.9396C15.1876 19.8912 15.9144 19.7223 16.5509 19.475C17.208 19.2193 17.7659 18.8775 18.3219 18.3214C18.8778 17.7656 19.2194 17.2078 19.4751 16.5501C19.7223 15.9141 19.8916 15.1873 19.94 14.123C19.9887 13.0562 20 12.716 20 10C20 7.28401 19.9887 6.94364 19.94 5.877C19.8916 4.81267 19.7223 4.08586 19.4751 3.44959C19.2194 2.79189 18.8778 2.23437 18.3219 1.67845C17.7659 1.12254 17.208 0.780385 16.5509 0.525019C15.9144 0.277689 15.1876 0.108754 14.1232 0.0603593C13.0565 0.0117861 12.7162 0 10.0001 0C7.28421 0 6.94383 0.0117861 5.87715 0.0603593ZM5.95934 18.1395C4.98428 18.0952 4.45478 17.9327 4.10262 17.7955C3.63562 17.6138 3.30274 17.3971 2.95272 17.0473C2.6027 16.6975 2.38608 16.3644 2.20446 15.8976C2.06749 15.5453 1.9048 15.0158 1.86015 14.0408C1.81212 12.9863 1.80176 12.6698 1.80176 9.99991C1.80176 7.32963 1.81212 7.01355 1.86015 5.95887C1.9048 4.98401 2.06749 4.45453 2.20446 4.1022C2.38608 3.63539 2.6027 3.30217 2.95272 2.95233C3.30274 2.6025 3.63562 2.38553 4.10262 2.20445C4.45478 2.06748 4.98428 1.90462 5.95934 1.85997C7.01369 1.81194 7.33014 1.80176 10.0001 1.80176C12.6701 1.80176 12.9864 1.81194 14.0413 1.85997C15.016 1.90462 15.5455 2.06748 15.898 2.20445C16.3648 2.38553 16.6979 2.6025 17.0477 2.95233C17.3977 3.30217 17.6142 3.63539 17.7958 4.1022C17.9328 4.45453 18.0956 4.98401 18.1403 5.95887C18.1883 7.01355 18.1981 7.32963 18.1981 9.99991C18.1981 12.6698 18.1883 12.9863 18.1403 14.0408C18.0956 15.0158 17.9328 15.5453 17.7958 15.8976C17.6142 16.3644 17.3977 16.6975 17.0477 17.0473C16.6979 17.3971 16.3648 17.6138 15.898 17.7955C15.5455 17.9327 15.016 18.0952 14.0413 18.1395C12.9867 18.1879 12.6705 18.1979 10.0001 18.1979C7.33014 18.1979 7.01369 18.1879 5.95934 18.1395ZM14.1382 4.66178C14.1382 5.3243 14.6754 5.86182 15.3383 5.86182C16.001 5.86182 16.5382 5.3243 16.5382 4.66178C16.5382 3.9989 16.001 3.46191 15.3383 3.46191C14.6754 3.46191 14.1382 3.9989 14.1382 4.66178ZM4.86426 10.0001C4.86426 12.8363 7.16351 15.1351 9.99958 15.1351C12.8358 15.1351 15.1347 12.8363 15.1347 10.0001C15.1347 7.16397 12.8358 4.86496 9.99958 4.86496C7.16351 4.86496 4.86426 7.16397 4.86426 10.0001ZM6.66748 10.0001C6.66748 8.15909 8.15972 6.66672 10.0007 6.66672C11.8417 6.66672 13.3341 8.15909 13.3341 10.0001C13.3341 11.8412 11.8417 13.3334 10.0007 13.3334C8.15972 13.3334 6.66748 11.8412 6.66748 10.0001Z" fill="#343633"/>
</svg>
