<svg width="12" height="12" viewBox="0 0 12 12" fill="none" xmlns="http://www.w3.org/2000/svg">
<g clip-path="url(#clip0_128_895)">
<path d="M0.93537 0.63723C0.721667 0.963176 0.66898 1.36356 0.75155 1.82593C0.849988 2.37732 1.14788 2.9987 1.57843 3.58375C2.43957 4.75386 3.8296 5.76536 5.06623 5.91871L5.15267 5.92972L5.20833 5.99638L9.75884 11.4895C10.2124 11.5979 10.5053 11.5304 10.6575 11.3796C10.811 11.2277 10.8817 10.9342 10.7681 10.4685L0.935417 0.637207L0.93537 0.63723ZM9.72593 0.691418L7.18296 3.23439C6.90171 3.51559 6.89928 3.82501 7.0445 4.1631L7.10457 4.30302L6.99469 4.40849L6.1407 5.22292L6.83431 5.9165L7.6451 5.06029L7.75057 4.94896L7.89045 5.00975C8.24588 5.16292 8.58293 5.15664 8.84407 4.8955L11.387 2.35253L11.0567 2.0222L9.40289 3.67529L9.09382 3.36552L10.7469 1.71247L10.3946 1.36009L8.74156 3.01318L8.43171 2.70339L10.0848 1.05034L9.72593 0.691418ZM4.94389 6.36477L0.598433 10.511C0.491206 10.9551 0.559902 11.2326 0.704652 11.376C0.849449 11.5194 1.12953 11.5852 1.56818 11.4792L5.62803 7.19094L4.94389 6.36477Z" fill="white"/>
</g>
<defs>
<clipPath id="clip0_128_895">
<rect width="12" height="12" fill="white"/>
</clipPath>
</defs>
</svg>
