<svg width="215" height="272" viewBox="0 0 215 272" fill="none" xmlns="http://www.w3.org/2000/svg">
<g clip-path="url(#clip0_101_29)">
<path d="M98.4883 0.509949C80.788 2.92773 65.7813 12.0409 55.7769 26.4546C49.5241 35.4747 44.9066 44.8669 37.0185 64.953C33.4592 73.8802 25.9558 90.4327 20.184 101.685C4.21534 133.023 0.944643 143.345 0.175068 165.477C-0.20972 177.008 -0.0173261 181.564 1.32943 187.795C5.75449 209.183 15.278 226.107 31.5352 241.637C61.4525 270.092 103.779 279.67 142.162 266.559C152.359 263.118 156.014 261.351 166.018 255.121C188.817 240.8 206.806 216.157 212.482 191.7C215.945 176.822 215.367 157.201 210.846 140.741C207.479 128.373 203.824 119.911 193.435 99.8248C188.625 90.6187 181.218 74.5312 177.081 64.0231C165.441 34.8238 159.477 24.5947 148.511 14.9236C136.101 3.95062 115.996 -1.81482 98.4883 0.509949ZM123.98 11.8549C132.35 14.3657 141.681 20.5961 147.356 27.3845C153.224 34.1729 162.363 52.3062 170.155 72.3923C173.522 80.8546 180.64 96.2912 186.027 106.799C199.014 131.814 202.958 143.624 204.786 161.571C208.73 201.186 183.045 240.614 143.22 256.236C130.522 261.165 123.499 262.374 107.627 262.467C94.2556 262.56 91.7545 262.281 83.3854 260.049C59.1437 253.54 38.9424 239.591 25.571 220.063C14.5084 203.975 10.4681 192.165 9.79475 173.288C8.92898 150.877 12.8731 136.928 28.7455 105.869C34.4212 94.8963 41.7321 78.9947 45.099 70.5325C55.8731 43.286 62.0297 32.0341 71.4569 23.0139C76.9402 17.7134 87.3294 12.3199 95.41 10.4601C103.106 8.78619 115.804 9.43713 123.98 11.8549Z" fill="#32742D"/>
<path d="M99.6052 9.5433C83.1305 11.8033 69.1628 20.3217 59.851 33.7948C54.0312 42.2263 49.7334 51.0055 42.3914 69.7809C39.0786 78.1255 32.0947 93.5977 26.7226 104.115C11.8595 133.408 8.81527 143.057 8.09898 163.744C7.74084 174.523 7.91991 178.782 9.17342 184.606C13.2921 204.598 22.1562 220.418 37.2878 234.934C65.1337 261.533 104.53 270.486 140.255 258.23C149.746 255.014 153.148 253.362 162.46 247.538C183.68 234.152 200.423 211.117 205.706 188.257C208.929 174.349 208.392 156.008 204.184 140.623C201.05 129.062 197.648 121.152 187.978 102.377C183.501 93.7716 176.606 78.7339 172.756 68.9116C161.923 41.6178 156.371 32.0563 146.164 23.0163C134.614 12.7594 115.901 7.37024 99.6052 9.5433Z" fill="#559C4F"/>
<path d="M101.519 31.0946C87.4234 33.0264 75.4728 40.3079 67.5056 51.8246C62.5262 59.0318 58.849 66.5362 52.5673 82.5853C49.7328 89.7182 43.7575 102.944 39.1611 111.934C26.4443 136.974 23.8397 145.221 23.2268 162.905C22.9204 172.118 23.0736 175.759 24.1461 180.737C27.67 197.826 35.2541 211.349 48.2007 223.758C72.0254 246.494 105.732 254.147 136.299 243.67C144.419 240.921 147.33 239.509 155.297 234.531C173.453 223.089 187.779 203.399 192.298 183.858C195.056 171.97 194.597 156.292 190.996 143.141C188.315 133.259 185.404 126.497 177.13 110.448C173.3 103.092 167.401 90.2383 164.107 81.8423C154.838 58.5117 150.088 50.3386 141.355 42.6113C131.472 33.8437 115.462 29.237 101.519 31.0946Z" fill="#C6E8AA"/>
<ellipse cx="108.222" cy="181.333" rx="46.896" ry="45.3333" fill="#874E3D"/>
<ellipse cx="19.2207" cy="8.13317" rx="19.2207" ry="8.13317" transform="matrix(0.782829 -0.622237 0.647913 0.761714 67.8188 163.407)" fill="#B27563"/>
<path d="M75.3508 74.7562C74.1758 75.0139 71.1964 76.8176 70.2732 77.8483C68.9303 79.3084 68.133 80.9404 67.9232 82.7441C67.7133 84.2901 67.7973 84.6767 68.3848 84.9343C69.6437 85.4067 70.6089 84.8055 71.5321 82.83C74.4696 76.6458 82.4428 76.5599 84.8348 82.7012C85.5482 84.5478 86.6812 85.3638 87.8982 84.9773C89.7027 84.376 88.4437 80.2103 85.716 77.6336C83.3241 75.4004 82.1491 74.8421 79.1696 74.6703C77.6169 74.5844 75.8964 74.6274 75.3508 74.7562Z" fill="#343633"/>
<path d="M137.512 75.0214C134.448 75.7812 131.211 78.7782 130.175 81.8596C129.484 83.8857 129.959 84.9832 131.513 84.9832C132.29 84.9832 132.808 84.5189 133.628 82.9149C135.009 80.4244 136.562 79.0314 138.677 78.4827C142.173 77.5118 145.798 79.3269 147.481 82.9149C148.388 84.7722 149.38 85.4053 150.589 84.941C151.581 84.6033 151.754 83.8013 151.193 82.1973C149.164 76.4566 143.554 73.5018 137.512 75.0214Z" fill="#343633"/>
<path d="M98.1663 99.6895C97.4985 99.9616 96.5445 101.141 95.9721 102.411C94.1594 107.127 100.361 114.656 107.134 115.926C114.48 117.196 123.734 110.756 123.734 104.315C123.734 100.143 120.872 99.0545 109.424 99.1453C103.891 99.1453 98.8342 99.4174 98.1663 99.6895Z" fill="#343633"/>
<path fill-rule="evenodd" clip-rule="evenodd" d="M119.691 111.835C118.071 109.639 115.31 107.698 112.394 107.158C106.863 106.207 102.208 109.268 101.94 113.721C103.534 114.791 105.313 115.584 107.134 115.926C111.406 116.664 116.323 114.795 119.691 111.835Z" fill="#FF668F"/>
</g>
<defs>
<clipPath id="clip0_101_29">
<rect width="215" height="272" fill="white"/>
</clipPath>
</defs>
</svg>
