<svg width="44" height="44" viewBox="0 0 44 44" fill="none" xmlns="http://www.w3.org/2000/svg">
<rect width="44" height="44" rx="22" transform="matrix(-1 0 0 1 44 0)" fill="#FAFDF8"/>
<path d="M22 24.25C20.7595 24.25 19.75 23.2405 19.75 22C19.75 20.7595 20.7595 19.75 22 19.75C23.2405 19.75 24.25 20.7595 24.25 22C24.25 23.2405 23.2405 24.25 22 24.25Z" fill="#343633"/>
<path d="M14.5 24.25C13.2595 24.25 12.25 23.2405 12.25 22C12.25 20.7595 13.2595 19.75 14.5 19.75C15.7405 19.75 16.75 20.7595 16.75 22C16.75 23.2405 15.7405 24.25 14.5 24.25Z" fill="#343633"/>
<path d="M29.5 24.25C28.2595 24.25 27.25 23.2405 27.25 22C27.25 20.7595 28.2595 19.75 29.5 19.75C30.7405 19.75 31.75 20.7595 31.75 22C31.75 23.2405 30.7405 24.25 29.5 24.25Z" fill="#343633"/>
</svg>
