<svg width="30" height="33" viewBox="0 0 30 33" fill="none" xmlns="http://www.w3.org/2000/svg">
<path d="M27.9988 4.27247C27.4682 4.27267 26.9594 4.4977 26.5844 4.89804L13.504 18.8593L10.3016 12.1325C9.52061 11.2989 8.25394 11.2985 7.47244 12.1316C6.69095 12.9647 6.69058 14.3159 7.4716 15.1495L12.089 23.3867C12.8704 24.2205 14.1376 24.2205 14.9191 23.3867L29.4144 7.91507C30.1955 7.08143 30.1951 5.73019 29.4136 4.89705C29.0383 4.49695 28.5294 4.27228 27.9988 4.27247ZM14.8478 0.000916331C11.0167 0.0445829 7.23605 1.64814 4.38964 4.68717C-0.404298 9.80553 -1.38362 17.7491 2.00591 24.0172C5.39543 30.2853 12.3314 33.3532 18.881 31.4795C25.4307 29.6057 29.9994 23.2477 29.9994 16.0106C29.9994 14.832 29.1037 13.8766 27.9989 13.8766C26.8939 13.8765 25.9982 14.8319 25.9982 16.0106C25.9982 21.3383 22.6624 25.9788 17.8445 27.3571C13.0267 28.7354 7.96649 26.4981 5.47175 21.8847C2.97701 17.2713 3.69248 11.4702 7.22015 7.7038C10.7478 3.93741 16.1775 3.17438 20.4974 5.83729C21.4541 6.42697 22.6778 6.07774 23.2305 5.05726C23.7833 4.03684 23.4559 2.73164 22.4994 2.14195C20.1139 0.671503 17.469 -0.0289608 14.8478 0.000916331Z" fill="#559C4F"/>
</svg>
