<svg width="16" height="16" viewBox="0 0 16 16" fill="none" xmlns="http://www.w3.org/2000/svg">
<path d="M8 14C7.8446 14 7.69556 13.9383 7.58568 13.8284C7.47579 13.7185 7.41406 13.5695 7.41406 13.4141V2.58594C7.41406 2.43054 7.47579 2.2815 7.58568 2.17162C7.69556 2.06173 7.8446 2 8 2C8.1554 2 8.30444 2.06173 8.41432 2.17162C8.52421 2.2815 8.58594 2.43054 8.58594 2.58594V13.4141C8.58594 13.5695 8.52421 13.7185 8.41432 13.8284C8.30444 13.9383 8.1554 14 8 14Z" fill="#FAFDF8"/>
<path d="M13.4141 8.58594H2.58594C2.43054 8.58594 2.2815 8.52421 2.17162 8.41432C2.06173 8.30444 2 8.1554 2 8C2 7.8446 2.06173 7.69556 2.17162 7.58568C2.2815 7.47579 2.43054 7.41406 2.58594 7.41406H13.4141C13.5695 7.41406 13.7185 7.47579 13.8284 7.58568C13.9383 7.69556 14 7.8446 14 8C14 8.1554 13.9383 8.30444 13.8284 8.41432C13.7185 8.52421 13.5695 8.58594 13.4141 8.58594Z" fill="#FAFDF8"/>
</svg>
