<svg width="50" height="50" viewBox="0 0 50 50" fill="none" xmlns="http://www.w3.org/2000/svg">
<path d="M25 43.75C24.5144 43.75 24.0486 43.5571 23.7052 43.2137C23.3619 42.8703 23.1689 42.4046 23.1689 41.9189V8.08105C23.1689 7.59543 23.3619 7.12969 23.7052 6.7863C24.0486 6.44291 24.5144 6.25 25 6.25C25.4856 6.25 25.9514 6.44291 26.2948 6.7863C26.6381 7.12969 26.8311 7.59543 26.8311 8.08105V41.9189C26.8311 42.4046 26.6381 42.8703 26.2948 43.2137C25.9514 43.5571 25.4856 43.75 25 43.75Z" fill="#343633"/>
<path d="M41.9189 26.8311H8.08105C7.59543 26.8311 7.12969 26.6381 6.7863 26.2948C6.44291 25.9514 6.25 25.4856 6.25 25C6.25 24.5144 6.44291 24.0486 6.7863 23.7052C7.12969 23.3619 7.59543 23.1689 8.08105 23.1689H41.9189C42.4046 23.1689 42.8703 23.3619 43.2137 23.7052C43.5571 24.0486 43.75 24.5144 43.75 25C43.75 25.4856 43.5571 25.9514 43.2137 26.2948C42.8703 26.6381 42.4046 26.8311 41.9189 26.8311Z" fill="#343633"/>
</svg>
