<svg width="42" height="44" viewBox="0 0 42 44" fill="none" xmlns="http://www.w3.org/2000/svg">
<path d="M34.3717 0.180358C34.2256 0.292077 33.8131 1.00536 33.2889 2.06239C32.4725 3.68661 32.4295 3.76395 32.1545 3.80692C31.9998 3.8327 31.1405 3.96161 30.2467 4.09051C28.528 4.34833 28.3045 4.42567 28.1584 4.87255C28.0037 5.33661 28.167 5.58583 29.5076 6.91786C30.2209 7.62255 30.7795 8.21552 30.7366 8.2327C30.7022 8.2413 28.9319 9.02333 26.8006 9.96005L22.9334 11.6702L22.5209 11.2835C20.8451 9.71942 18.1553 10.2436 17.1241 12.3319C16.9006 12.7874 16.8491 13.0194 16.8061 13.6382L16.7631 14.3944L12.5178 16.2593L8.28109 18.1327L7.92874 17.789C6.80296 16.6975 4.98968 16.5429 3.66624 17.4108C2.4803 18.1843 1.87015 19.714 2.2139 21.0546C2.60062 22.5585 3.79515 23.5811 5.29046 23.6929C6.7428 23.796 8.02327 23.0569 8.65921 21.7421C8.88265 21.278 8.92562 21.0546 8.9514 20.4444L8.98577 19.7054L10.1116 19.2069C10.7389 18.9319 12.6467 18.0983 14.3569 17.3421L17.4678 15.9671L17.8717 16.3194C18.6967 17.0413 19.7967 17.385 20.742 17.2046C22.4264 16.8952 23.535 15.6405 23.6553 13.939L23.7069 13.2085L27.1444 11.6874C29.3616 10.7077 30.5905 10.2093 30.6076 10.278C30.6248 10.3382 30.5733 10.6991 30.5045 11.0858C30.3155 12.0655 30.3241 12.3147 30.5819 12.6155C30.9772 13.0882 31.0889 13.071 33.0741 12.0569L34.8873 11.146L36.46 11.9796C37.328 12.4436 38.153 12.8561 38.2905 12.8991C38.6772 13.0022 39.1069 12.796 39.2616 12.4265C39.3819 12.1515 39.3647 11.9796 39.0639 10.2522L38.7373 8.3788L40.1811 6.90927C41.7194 5.3452 41.7709 5.25926 41.4959 4.73505C41.4272 4.59755 41.2639 4.45145 41.135 4.39989C40.9459 4.32255 37.603 3.78114 37.3194 3.78114C37.2764 3.78114 36.8553 2.99051 36.3912 2.02801C35.678 0.558483 35.4975 0.249108 35.2826 0.13739C34.9217 -0.0516729 34.6467 -0.0344854 34.3717 0.180358ZM35.3944 3.96161C35.678 4.53739 36.0131 5.08739 36.1334 5.19051C36.3139 5.3452 36.5889 5.41395 37.4655 5.53426C38.0756 5.6202 38.6342 5.69755 38.7116 5.72333C38.8147 5.74911 38.5826 6.02411 37.9209 6.68583L36.9842 7.60536V8.03505C36.9842 8.27567 37.0616 8.88583 37.1561 9.40145C37.2506 9.91708 37.328 10.3725 37.328 10.4155C37.328 10.4585 36.8037 10.2179 36.1592 9.8827C35.1967 9.38427 34.9389 9.28114 34.7326 9.32411C34.5951 9.35848 33.9936 9.63348 33.4006 9.94286L32.3264 10.51L32.378 10.2608C32.6014 9.17802 32.7733 7.94911 32.7303 7.79442C32.6959 7.6913 32.2576 7.19286 31.7592 6.68583C30.7194 5.63739 30.6678 5.7663 32.2147 5.54286C33.6241 5.33661 33.5467 5.39676 34.217 4.07333C34.535 3.43739 34.81 2.92176 34.8358 2.92176C34.8616 2.92176 35.1194 3.38583 35.3944 3.96161ZM21.2319 12.4265C22.1256 13.1397 22.1686 14.3515 21.3178 15.0991C21.0342 15.3483 20.5444 15.5546 20.2264 15.5546C19.9084 15.5546 19.4186 15.3483 19.135 15.0991C18.1811 14.2569 18.3616 12.8647 19.4959 12.246C19.6764 12.1515 19.917 12.1171 20.3295 12.1343C20.8194 12.16 20.9569 12.203 21.2319 12.4265ZM6.30452 18.7515C6.90608 19.0608 7.18968 19.4905 7.23265 20.1436C7.28421 20.96 6.92327 21.5616 6.2014 21.871C5.03265 22.3522 3.62327 21.2522 3.8553 20.0319C4.07874 18.8374 5.26468 18.2272 6.30452 18.7515Z" fill="#FAFDF8"/>
<path d="M31.4496 17.832C30.7879 18.0812 30.298 18.5453 29.9543 19.25L29.7222 19.7227L29.6965 31.4531C29.6793 42.5133 29.6879 43.2008 29.8254 43.4844C29.9113 43.6477 30.0746 43.8281 30.1949 43.8883C30.3582 43.9742 31.4925 44 34.9558 44H39.4933L39.7855 43.7078L40.0777 43.4156L40.0605 31.5219L40.0347 19.6367L39.7941 19.1469C39.5363 18.6227 39.1582 18.2445 38.591 17.9437C38.2386 17.7461 38.1699 17.7461 35.0074 17.7289C32.3691 17.7117 31.7246 17.7375 31.4496 17.832ZM38.0324 19.6711L38.316 19.9203L38.3418 31.1008L38.359 42.2812H34.9215H31.484V31.1008V19.9203L31.7332 19.6711L31.9824 19.4219H34.8699H37.7574L38.0324 19.6711Z" fill="#FAFDF8"/>
<path d="M16.9093 21.2352C16.1788 21.45 15.3624 22.275 15.1562 23.0141C15.0358 23.4523 15.0358 43.3469 15.1562 43.5789C15.3796 43.9914 15.4397 44 20.2437 44C24.5577 44 24.7468 43.9914 25.0132 43.8281C25.1679 43.7336 25.314 43.5703 25.3397 43.4672C25.3655 43.3555 25.3741 38.7062 25.3655 33.1289L25.3397 22.9883L25.1077 22.55C24.8499 22.0687 24.446 21.6734 23.896 21.3812C23.5437 21.1836 23.4749 21.1836 20.3554 21.1664C18.5851 21.1578 17.0554 21.1836 16.9093 21.2352ZM23.2257 22.9797C23.3546 23.0484 23.5007 23.2031 23.5608 23.332C23.6382 23.5039 23.664 25.8414 23.664 32.9141V42.2812H20.2265H16.789V32.8883C16.7976 22.8164 16.7804 23.2289 17.2272 22.9797C17.5366 22.8078 22.8905 22.8078 23.2257 22.9797Z" fill="#FAFDF8"/>
<path d="M2.41152 28.1102C1.65527 28.2906 1.01074 28.8148 0.624023 29.5625L0.417773 29.9492L0.391992 36.6781L0.366211 43.407L0.666992 43.7078L0.95918 44H5.50527C8.95996 44 10.0943 43.9742 10.2576 43.8883C10.3779 43.8281 10.5412 43.6477 10.6271 43.4844C10.7646 43.2008 10.7732 42.7539 10.7561 36.6523C10.7303 30.5852 10.7131 30.0953 10.5756 29.7172C10.3521 29.15 9.81934 28.5828 9.24355 28.2992L8.75371 28.0586L5.7459 28.0414C4.0959 28.0328 2.59199 28.0672 2.41152 28.1102ZM8.4959 29.8547C9.0373 30.0781 9.01152 29.8117 9.01152 36.3086V42.2383L5.55684 42.2641L2.09355 42.2813V36.3945C2.09355 29.8805 2.07637 30.1039 2.63496 29.8633C3.03887 29.6828 8.0748 29.6828 8.4959 29.8547Z" fill="#FAFDF8"/>
</svg>
