<svg width="44" height="44" viewBox="0 0 44 44" fill="none" xmlns="http://www.w3.org/2000/svg">
<path d="M35.3717 0.180358C35.2256 0.292077 34.8131 1.00536 34.2889 2.06239C33.4725 3.68661 33.4295 3.76395 33.1545 3.80692C32.9998 3.8327 32.1405 3.96161 31.2467 4.09051C29.528 4.34833 29.3045 4.42567 29.1584 4.87255C29.0037 5.33661 29.167 5.58583 30.5076 6.91786C31.2209 7.62255 31.7795 8.21552 31.7366 8.2327C31.7022 8.2413 29.9319 9.02333 27.8006 9.96005L23.9334 11.6702L23.5209 11.2835C21.8451 9.71942 19.1553 10.2436 18.1241 12.3319C17.9006 12.7874 17.8491 13.0194 17.8061 13.6382L17.7631 14.3944L13.5178 16.2593L9.28109 18.1327L8.92874 17.789C7.80296 16.6975 5.98968 16.5429 4.66624 17.4108C3.4803 18.1843 2.87015 19.714 3.2139 21.0546C3.60062 22.5585 4.79515 23.5811 6.29046 23.6929C7.7428 23.796 9.02327 23.0569 9.65921 21.7421C9.88265 21.278 9.92562 21.0546 9.9514 20.4444L9.98577 19.7054L11.1116 19.2069C11.7389 18.9319 13.6467 18.0983 15.3569 17.3421L18.4678 15.9671L18.8717 16.3194C19.6967 17.0413 20.7967 17.385 21.742 17.2046C23.4264 16.8952 24.535 15.6405 24.6553 13.939L24.7069 13.2085L28.1444 11.6874C30.3616 10.7077 31.5905 10.2093 31.6076 10.278C31.6248 10.3382 31.5733 10.6991 31.5045 11.0858C31.3155 12.0655 31.3241 12.3147 31.5819 12.6155C31.9772 13.0882 32.0889 13.071 34.0741 12.0569L35.8873 11.146L37.46 11.9796C38.328 12.4436 39.153 12.8561 39.2905 12.8991C39.6772 13.0022 40.1069 12.796 40.2616 12.4265C40.3819 12.1515 40.3647 11.9796 40.0639 10.2522L39.7373 8.3788L41.1811 6.90927C42.7194 5.3452 42.7709 5.25926 42.4959 4.73505C42.4272 4.59755 42.2639 4.45145 42.135 4.39989C41.9459 4.32255 38.603 3.78114 38.3194 3.78114C38.2764 3.78114 37.8553 2.99051 37.3912 2.02801C36.678 0.558483 36.4975 0.249108 36.2826 0.13739C35.9217 -0.0516729 35.6467 -0.0344854 35.3717 0.180358ZM36.3944 3.96161C36.678 4.53739 37.0131 5.08739 37.1334 5.19051C37.3139 5.3452 37.5889 5.41395 38.4655 5.53426C39.0756 5.6202 39.6342 5.69755 39.7116 5.72333C39.8147 5.74911 39.5826 6.02411 38.9209 6.68583L37.9842 7.60536V8.03505C37.9842 8.27567 38.0616 8.88583 38.1561 9.40145C38.2506 9.91708 38.328 10.3725 38.328 10.4155C38.328 10.4585 37.8037 10.2179 37.1592 9.8827C36.1967 9.38427 35.9389 9.28114 35.7326 9.32411C35.5951 9.35848 34.9936 9.63348 34.4006 9.94286L33.3264 10.51L33.378 10.2608C33.6014 9.17802 33.7733 7.94911 33.7303 7.79442C33.6959 7.6913 33.2576 7.19286 32.7592 6.68583C31.7194 5.63739 31.6678 5.7663 33.2147 5.54286C34.6241 5.33661 34.5467 5.39676 35.217 4.07333C35.535 3.43739 35.81 2.92176 35.8358 2.92176C35.8616 2.92176 36.1194 3.38583 36.3944 3.96161ZM22.2319 12.4265C23.1256 13.1397 23.1686 14.3515 22.3178 15.0991C22.0342 15.3483 21.5444 15.5546 21.2264 15.5546C20.9084 15.5546 20.4186 15.3483 20.135 15.0991C19.1811 14.2569 19.3616 12.8647 20.4959 12.246C20.6764 12.1515 20.917 12.1171 21.3295 12.1343C21.8194 12.16 21.9569 12.203 22.2319 12.4265ZM7.30452 18.7515C7.90608 19.0608 8.18968 19.4905 8.23265 20.1436C8.28421 20.96 7.92327 21.5616 7.2014 21.871C6.03265 22.3522 4.62327 21.2522 4.8553 20.0319C5.07874 18.8374 6.26468 18.2272 7.30452 18.7515Z" fill="#343633"/>
<path d="M32.4496 17.832C31.7879 18.0812 31.298 18.5453 30.9543 19.25L30.7222 19.7227L30.6965 31.4531C30.6793 42.5133 30.6879 43.2008 30.8254 43.4844C30.9113 43.6477 31.0746 43.8281 31.1949 43.8883C31.3582 43.9742 32.4925 44 35.9558 44H40.4933L40.7855 43.7078L41.0777 43.4156L41.0605 31.5219L41.0347 19.6367L40.7941 19.1469C40.5363 18.6227 40.1582 18.2445 39.591 17.9437C39.2386 17.7461 39.1699 17.7461 36.0074 17.7289C33.3691 17.7117 32.7246 17.7375 32.4496 17.832ZM39.0324 19.6711L39.316 19.9203L39.3418 31.1008L39.359 42.2812H35.9215H32.484V31.1008V19.9203L32.7332 19.6711L32.9824 19.4219H35.8699H38.7574L39.0324 19.6711Z" fill="#343633"/>
<path d="M17.9093 21.2352C17.1788 21.45 16.3624 22.275 16.1562 23.0141C16.0358 23.4523 16.0358 43.3469 16.1562 43.5789C16.3796 43.9914 16.4397 44 21.2437 44C25.5577 44 25.7468 43.9914 26.0132 43.8281C26.1679 43.7336 26.314 43.5703 26.3397 43.4672C26.3655 43.3555 26.3741 38.7062 26.3655 33.1289L26.3397 22.9883L26.1077 22.55C25.8499 22.0687 25.446 21.6734 24.896 21.3812C24.5437 21.1836 24.4749 21.1836 21.3554 21.1664C19.5851 21.1578 18.0554 21.1836 17.9093 21.2352ZM24.2257 22.9797C24.3546 23.0484 24.5007 23.2031 24.5608 23.332C24.6382 23.5039 24.664 25.8414 24.664 32.9141V42.2812H21.2265H17.789V32.8883C17.7976 22.8164 17.7804 23.2289 18.2272 22.9797C18.5366 22.8078 23.8905 22.8078 24.2257 22.9797Z" fill="#343633"/>
<path d="M3.41152 28.1102C2.65527 28.2906 2.01074 28.8148 1.62402 29.5625L1.41777 29.9492L1.39199 36.6781L1.36621 43.407L1.66699 43.7078L1.95918 44H6.50527C9.95996 44 11.0943 43.9742 11.2576 43.8883C11.3779 43.8281 11.5412 43.6477 11.6271 43.4844C11.7646 43.2008 11.7732 42.7539 11.7561 36.6523C11.7303 30.5852 11.7131 30.0953 11.5756 29.7172C11.3521 29.15 10.8193 28.5828 10.2436 28.2992L9.75371 28.0586L6.7459 28.0414C5.0959 28.0328 3.59199 28.0672 3.41152 28.1102ZM9.4959 29.8547C10.0373 30.0781 10.0115 29.8117 10.0115 36.3086V42.2383L6.55684 42.2641L3.09355 42.2813V36.3945C3.09355 29.8805 3.07637 30.1039 3.63496 29.8633C4.03887 29.6828 9.0748 29.6828 9.4959 29.8547Z" fill="#343633"/>
</svg>
