<svg width="30" height="30" viewBox="0 0 30 30" fill="none" xmlns="http://www.w3.org/2000/svg">
<path d="M13.9395 0.0878906C11.2383 0.480469 8.98242 2.44336 8.22656 5.06836C8.00977 5.80664 7.96875 6.375 7.96875 8.70703V11.0039L6.87305 11.0273C5.89453 11.0508 5.71289 11.0742 5.24414 11.2148C3.74414 11.666 2.53711 12.8613 2.06836 14.3848L1.9043 14.9121V20.5078V26.1035L2.06836 26.6309C2.53711 28.1484 3.72656 29.3379 5.24414 29.8066L5.77148 29.9707H15H24.2285L24.7559 29.8066C26.6953 29.209 28.0664 27.4395 28.0898 25.5176C28.0957 24.9961 28.0781 24.9082 27.9551 24.709C27.8789 24.5859 27.709 24.416 27.5801 24.3281C27.3809 24.1934 27.2754 24.1699 26.9531 24.1699C26.6309 24.1699 26.5254 24.1934 26.3262 24.3281C25.9805 24.5566 25.8457 24.8086 25.7754 25.3711C25.6406 26.4844 25.1074 27.1992 24.1758 27.5215C23.8945 27.6211 23.3906 27.627 15 27.627C6.60938 27.627 6.10547 27.6211 5.82422 27.5215C5.16211 27.293 4.64648 26.8008 4.38281 26.1504L4.24805 25.8105V20.5078V15.2051L4.38281 14.8652C4.64648 14.2148 5.16211 13.7227 5.82422 13.4941C6.10547 13.3945 6.60938 13.3887 15 13.3887C23.3906 13.3887 23.8945 13.3945 24.1758 13.4941C24.8379 13.7227 25.3535 14.2207 25.6172 14.8652C25.7461 15.1992 25.752 15.2637 25.7812 17.8184L25.8105 20.4316L25.9688 20.666C26.209 21.0293 26.4961 21.1816 26.9531 21.1816C27.4102 21.1816 27.6973 21.0293 27.9375 20.666L28.0957 20.4258V17.6719V14.9121L27.9316 14.3848C27.4629 12.8672 26.2559 11.666 24.7559 11.2148C24.2871 11.0742 24.1055 11.0508 23.1328 11.0273L22.0371 11.0039L22.0137 8.47266C21.9961 6.33984 21.9727 5.87695 21.8906 5.50781C21.4395 3.58008 20.2793 1.98047 18.6035 0.984375C17.2559 0.181641 15.5391 -0.146484 13.9395 0.0878906ZM16.2012 2.49609C17.6016 2.87695 18.7969 3.90234 19.3301 5.17383C19.6582 5.9707 19.6875 6.26953 19.6875 8.75977V11.0156H14.9941H10.3066L10.3242 8.53711L10.3477 6.06445L10.5059 5.5957C10.9395 4.3125 11.8066 3.3457 13.0312 2.7832C13.418 2.60156 13.9219 2.44922 14.3262 2.37891C14.6602 2.32617 15.8496 2.39648 16.2012 2.49609Z" fill="#559C4F"/>
<path d="M8.03906 19.1661C7.75781 19.2481 7.40039 19.6348 7.31836 19.9337C7.18359 20.4551 7.38867 21.0001 7.83398 21.2754C8.16797 21.4864 8.73633 21.4747 9.06445 21.2579C9.42773 21.0176 9.58008 20.7305 9.58008 20.2735C9.58008 19.8223 9.42773 19.5294 9.08203 19.3008C8.83008 19.1309 8.34961 19.0723 8.03906 19.1661Z" fill="#559C4F"/>
<path d="M12.4336 19.1661C12.1523 19.2481 11.7949 19.6348 11.7129 19.9337C11.5781 20.4551 11.7832 21.0001 12.2285 21.2754C12.5625 21.4864 13.1309 21.4747 13.459 21.2579C13.8223 21.0176 13.9746 20.7305 13.9746 20.2735C13.9746 19.8223 13.8223 19.5294 13.4766 19.3008C13.2246 19.1309 12.7441 19.0723 12.4336 19.1661Z" fill="#559C4F"/>
<path d="M16.8281 19.1661C16.5469 19.2481 16.1895 19.6348 16.1074 19.9337C15.9727 20.4551 16.1777 21.0001 16.623 21.2754C16.957 21.4864 17.5254 21.4747 17.8535 21.2579C18.2168 21.0176 18.3691 20.7305 18.3691 20.2735C18.3691 19.8223 18.2168 19.5294 17.8711 19.3008C17.6191 19.1309 17.1387 19.0723 16.8281 19.1661Z" fill="#559C4F"/>
<path d="M21.2812 19.1661C21 19.2481 20.6426 19.6348 20.5605 19.9337C20.4258 20.4551 20.6309 21.0001 21.0762 21.2754C21.4102 21.4864 21.9785 21.4747 22.3066 21.2579C22.6699 21.0176 22.8223 20.7305 22.8223 20.2735C22.8223 19.8223 22.6699 19.5294 22.3242 19.3008C22.0723 19.1309 21.5918 19.0723 21.2812 19.1661Z" fill="#559C4F"/>
</svg>
