<svg width="20" height="15" viewBox="0 0 20 15" fill="none" xmlns="http://www.w3.org/2000/svg">
<path d="M13.0341 6.90015L12.4948 7.4038L12.444 7.69212C12.3814 8.02789 12.1587 8.47315 11.9203 8.73958C11.5529 9.15199 10.9901 9.46221 10.4547 9.5498L10.146 9.59724L9.59492 10.1118C9.29399 10.3929 9.0595 10.6337 9.07122 10.6447C9.11812 10.6885 9.71607 10.7688 10.0053 10.7724C10.994 10.7761 11.9046 10.4148 12.6394 9.73228C13.3937 9.0279 13.7258 8.28702 13.7298 7.30526C13.7337 6.84905 13.6672 6.39285 13.6047 6.39285C13.5891 6.39285 13.335 6.61913 13.0341 6.90015Z" fill="#559C4F"/>
<path d="M16.1652 3.97687C15.9346 4.1922 15.747 4.38563 15.7509 4.40388C15.7509 4.42578 15.9034 4.54987 16.0909 4.6849C16.8921 5.2579 17.9473 6.309 18.5179 7.09368L18.643 7.26886L18.4827 7.48784C17.8105 8.41485 16.642 9.5207 15.6102 10.2105C13.8437 11.393 11.7802 11.9952 9.72845 11.9258C9.08751 11.9076 8.88819 11.8857 8.23162 11.7725L7.88379 11.7105L7.37964 12.1813C7.01618 12.5207 6.89112 12.6558 6.9302 12.6776C7.03963 12.736 7.96586 12.9295 8.49737 13.0061C9.2282 13.112 10.7172 13.1193 11.4285 13.0244C13.9493 12.6776 16.0519 11.663 17.9747 9.86376C18.6625 9.21778 19.112 8.71047 19.6161 8.00609C20.1203 7.30536 20.1203 7.24331 19.663 6.59002C19.2253 5.96958 18.6273 5.2871 17.9942 4.6922C17.4588 4.18855 16.7123 3.58271 16.6303 3.58271C16.6068 3.58271 16.3958 3.75789 16.1652 3.97687Z" fill="#559C4F"/>
<path d="M16.6456 0.297897C16.5909 0.319795 16.0711 0.783301 15.4848 1.3271L14.4257 2.31616L13.9216 2.13367C13.1087 1.83075 12.3349 1.64097 11.4282 1.51323C10.7091 1.41469 9.19661 1.42564 8.44233 1.53513C6.45307 1.8198 4.6944 2.56068 3.02952 3.81251C2.50191 4.20668 1.50142 5.14829 1.07543 5.64464C0.61427 6.18844 0.0436772 6.98771 0.0124118 7.141C-0.030578 7.35998 0.0280445 7.50596 0.348514 7.95487C1.28647 9.2797 2.63088 10.5425 3.98311 11.3746C4.20978 11.5133 4.40128 11.6301 4.4091 11.6374C4.42083 11.6447 4.00265 12.0498 3.48677 12.5352C2.67778 13.2907 2.541 13.4367 2.51755 13.5571C2.47456 13.7761 2.52927 13.9476 2.68951 14.0972C2.84974 14.2469 3.03343 14.298 3.26792 14.2578C3.40079 14.2359 4.15507 13.5425 10.4238 7.69575C15.5708 2.88915 17.4389 1.12272 17.4702 1.03148C17.5562 0.786951 17.4624 0.524176 17.224 0.359941C17.1028 0.275999 16.7902 0.243152 16.6456 0.297897ZM11.3305 2.68842C12.0027 2.78331 12.7491 2.96579 13.3393 3.18112L13.4565 3.22127L12.8156 3.81981L12.1746 4.41836L12.0691 4.34901C11.8659 4.21033 11.2289 3.94755 10.9201 3.86726C10.5058 3.76507 9.5757 3.75412 9.16534 3.84901C8.45015 4.01689 7.88346 4.31617 7.35977 4.80157C6.83998 5.29062 6.51951 5.82347 6.33974 6.48771C6.23421 6.88187 6.24594 7.70669 6.35928 8.10816C6.44916 8.41108 6.7071 8.96218 6.87125 9.1848L6.94941 9.29794L6.15605 10.0388L5.36269 10.7797L4.99142 10.5644C3.69391 9.8016 2.37685 8.64101 1.56005 7.53881L1.36073 7.26874L1.55614 7.00231C2.24788 6.068 3.4516 4.94391 4.47163 4.27237C5.84731 3.36726 7.4731 2.79426 9.08718 2.63733C9.57179 2.58988 10.838 2.61908 11.3305 2.68842ZM10.5566 5.0023C10.799 5.0607 11.2523 5.23588 11.2523 5.27238C11.2523 5.27603 10.4902 5.99136 9.55616 6.86362L7.86001 8.44757L7.75449 8.25779C7.6138 7.99137 7.50046 7.56071 7.50046 7.27239C7.50437 5.77968 9.04028 4.64099 10.5566 5.0023Z" fill="#559C4F"/>
</svg>
