<svg width="30" height="30" viewBox="0 0 30 30" fill="none" xmlns="http://www.w3.org/2000/svg">
<path d="M13.9453 2.90032C12.4688 3.15227 11.0157 3.95501 10.0782 5.03899C7.78715 7.70501 7.91605 11.5488 10.3711 14.0038C12.8203 16.4531 16.6758 16.582 19.3184 14.3085C20.1387 13.6054 20.8887 12.4628 21.2285 11.4199C22.2188 8.3847 20.8711 5.05657 18.0586 3.58587C16.7696 2.91204 15.2989 2.67181 13.9453 2.90032ZM15.7207 4.75188C18.2344 5.1386 19.9981 7.51751 19.6348 10.0195C19.1426 13.3652 15.4219 15.123 12.5567 13.3593C10.9161 12.3515 10.0371 10.3945 10.3946 8.5429C10.8868 6.01165 13.2012 4.36516 15.7207 4.75188Z" fill="#559C4F"/>
<path d="M21.1699 15.0058C21.0352 15.0702 20.8711 15.2108 20.8125 15.3105C20.5137 15.8085 20.5957 16.1308 21.1934 16.7753C22.5059 18.205 23.291 20.0214 23.4141 21.9491C23.4668 22.7167 23.4141 22.869 22.9453 23.3085C21.1524 24.9843 15.8789 25.7694 11.4551 25.0136C9.53907 24.6913 7.84571 24.0409 7.08985 23.3437C6.59766 22.8808 6.53907 22.7284 6.58595 21.9843C6.70313 20.0683 7.48829 18.205 8.75977 16.8339C9.22852 16.3183 9.33985 16.1132 9.29884 15.7733C9.22852 15.1464 8.51954 14.7421 7.98048 15.0233C7.75782 15.1405 7.11329 15.8202 6.69141 16.3944C5.4961 18.0058 4.81056 19.9452 4.70509 22.0019C4.65235 23.1151 4.85157 23.6952 5.56056 24.4511C8.07423 27.123 15.8379 28.0312 21.2051 26.2733C22.6758 25.7929 23.7481 25.1835 24.4453 24.4394C25.1484 23.6952 25.3477 23.1151 25.2949 22.0019C25.166 19.5292 24.1758 17.1855 22.5352 15.4745C21.9492 14.8651 21.6563 14.7655 21.1699 15.0058Z" fill="#559C4F"/>
</svg>
