<svg width="30" height="30" viewBox="0 0 30 30" fill="none" xmlns="http://www.w3.org/2000/svg">
<g clip-path="url(#clip0_117_99)">
<path d="M2.64844 2.92969C2.00977 3.09961 1.55273 3.36328 1.05469 3.86719C0.544922 4.37109 0.287109 4.82227 0.117188 5.48438C0.0117188 5.88281 0 6.13477 0 7.58203V9.22852L6.55078 14.0977C10.1484 16.7754 13.2598 19.0488 13.459 19.1543C14.4082 19.6289 15.5918 19.6289 16.5352 19.1543C16.8867 18.9785 17.291 18.6855 20.9238 15.9844C21.8438 15.2988 24.2637 13.5 26.3027 11.9883L30 9.23438V7.58789C30 6.13477 29.9883 5.88281 29.8828 5.48438C29.7129 4.82227 29.4551 4.37109 28.9453 3.86719C28.4414 3.35742 27.9902 3.09961 27.3281 2.92969C26.8828 2.8125 26.6426 2.8125 14.9766 2.81836C3.45117 2.81836 3.06445 2.82422 2.64844 2.92969ZM27.0879 5.32617C27.2109 5.40234 27.3809 5.57227 27.4688 5.70117C27.6211 5.93555 27.627 5.95898 27.6445 6.99609L27.6621 8.05664L21.709 12.4805C18.4395 14.9121 15.6504 16.9629 15.5156 17.0332C15.1992 17.209 14.8008 17.209 14.4844 17.0332C14.3496 16.9629 11.5664 14.9121 8.29688 12.4805L2.34961 8.05664L2.34375 7.11914C2.34375 6.60352 2.37305 6.08203 2.4082 5.95898C2.48438 5.68359 2.85938 5.29688 3.11719 5.2207C3.24023 5.18555 7.76367 5.16797 15.0879 5.17383L26.8652 5.18555L27.0879 5.32617Z" fill="#559C4F"/>
<path d="M0 18.123C0 23.8477 0.00585938 24.082 0.117188 24.5156C0.287109 25.1777 0.544922 25.6289 1.05469 26.1328C1.55859 26.6426 2.00977 26.9004 2.67188 27.0703C3.11719 27.1875 3.36328 27.1875 15 27.1875C26.6367 27.1875 26.8828 27.1875 27.3281 27.0703C27.9902 26.9004 28.4414 26.6426 28.9453 26.1328C29.4551 25.6289 29.7129 25.1777 29.8828 24.5156C29.9941 24.082 30 23.8477 30 18.123C30 14.8594 29.9883 12.1875 29.9707 12.1875C29.9531 12.1875 29.4316 12.5742 28.7988 13.043L27.6562 13.8926L27.6445 18.9785L27.627 24.0586L27.4688 24.2988C27.3809 24.4277 27.2109 24.5977 27.0879 24.6738L26.8652 24.8145H14.9941H3.12891L2.88867 24.6562C2.75977 24.5684 2.58984 24.3984 2.51367 24.2754L2.37305 24.0527L2.35547 18.9727L2.34375 13.8867L1.19531 13.0371C0.568359 12.5684 0.0410156 12.1875 0.0292969 12.1875C0.0117188 12.1875 0 14.8594 0 18.123Z" fill="#559C4F"/>
</g>
<defs>
<clipPath id="clip0_117_99">
<rect width="30" height="30" fill="white"/>
</clipPath>
</defs>
</svg>
