<svg width="20" height="14" viewBox="0 0 20 14" fill="none" xmlns="http://www.w3.org/2000/svg">
<path d="M9.17969 0.773438C6.86719 0.992188 4.89453 1.80078 3.03125 3.30078C2.50391 3.72266 1.50391 4.73047 1.07812 5.26172C0.617188 5.84375 0.046875 6.69922 0.015625 6.86328C0.00390625 6.9375 0.00390625 7.0625 0.015625 7.13672C0.046875 7.30078 0.617188 8.15625 1.07812 8.73828C1.50391 9.26953 2.50391 10.2773 3.03125 10.6992C4.72656 12.0625 6.51562 12.8555 8.57422 13.1602C9.23047 13.2539 10.7695 13.2539 11.4258 13.1602C12.7852 12.9609 14.0039 12.5586 15.1367 11.9336C16.8789 10.9766 18.4609 9.50781 19.6094 7.78906C20.1172 7.02734 20.1172 6.97266 19.6094 6.21094C19.1094 5.46094 18.6602 4.91406 17.9688 4.22266C16.0938 2.33594 13.9844 1.23438 11.5625 0.863281C11.0508 0.785156 9.625 0.734375 9.17969 0.773438ZM10.9844 2.05859C12.7891 2.25 14.5547 3 16.0898 4.22266C16.8984 4.87109 17.8906 5.92188 18.4336 6.70312L18.6367 7L18.4766 7.23438C17.8047 8.22656 16.6367 9.41016 15.6055 10.1484C13.6875 11.5234 11.3828 12.1719 9.15625 11.9609C6.90234 11.7461 4.84766 10.75 3.03125 8.99219C2.53516 8.51172 1.89453 7.76953 1.56641 7.29297L1.36328 7L1.55859 6.71484C1.94141 6.16406 2.28906 5.76172 2.94531 5.10156C3.89062 4.16016 4.75 3.53125 5.84375 2.98438C7.4375 2.1875 9.20703 1.86719 10.9844 2.05859Z" fill="#559C4F"/>
<path d="M9.34766 3.30869C8.5625 3.44932 7.92188 3.79307 7.34375 4.37901C6.83984 4.88682 6.51562 5.46494 6.33984 6.16416C6.24609 6.53526 6.24609 7.46494 6.33984 7.83604C6.51562 8.53526 6.83984 9.11338 7.34375 9.62119C8.03516 10.3243 8.84766 10.6876 9.82422 10.7384C10.9062 10.7931 11.8516 10.422 12.6367 9.63682C13.1719 9.10166 13.4805 8.55869 13.6602 7.83604C13.7539 7.46494 13.7539 6.53526 13.6602 6.16416C13.5625 5.77744 13.3789 5.34385 13.1719 5.00791C12.9297 4.60948 12.3672 4.05869 11.957 3.80479C11.1914 3.33604 10.2188 3.14854 9.34766 3.30869ZM10.5273 4.55869C11.3711 4.73448 12.125 5.42979 12.3945 6.27744C12.5156 6.66416 12.5156 7.33604 12.3945 7.72276C12.1484 8.5001 11.5 9.14854 10.7227 9.39463C10.5 9.46494 10.3594 9.48057 9.98047 9.48057C9.57422 9.47666 9.47266 9.46104 9.22656 9.3751C8.81641 9.22666 8.53906 9.05088 8.22266 8.73838C7.25781 7.77744 7.26562 6.21885 8.24219 5.24229C8.84766 4.63291 9.6875 4.38291 10.5273 4.55869Z" fill="#559C4F"/>
</svg>
