<svg width="19" height="21" viewBox="0 0 19 21" fill="none" xmlns="http://www.w3.org/2000/svg">
<path d="M17.0444 17.911L13.8365 14.3654C14.9693 12.8742 15.5376 10.9573 15.4229 9.01433C15.3082 7.07135 14.5192 5.25233 13.2206 3.93659C11.922 2.62085 10.214 1.90998 8.45274 1.95222C6.69148 1.99446 5.01296 2.78654 3.76721 4.16329C2.52146 5.54005 1.80465 7.39518 1.76627 9.34183C1.72789 11.2885 2.3709 13.1764 3.56121 14.6118C4.75151 16.0472 6.39722 16.9194 8.15515 17.0464C9.91307 17.1734 11.6475 16.5454 12.9967 15.2934L16.2047 18.839C16.316 18.9621 16.467 19.0313 16.6245 19.0313C16.782 19.0313 16.933 18.9622 17.0444 18.8391C17.1557 18.716 17.2183 18.5491 17.2183 18.375C17.2183 18.201 17.1557 18.0341 17.0444 17.911ZM2.96877 9.5156C2.96877 8.28256 3.29958 7.07721 3.91938 6.05198C4.53918 5.02675 5.42012 4.22767 6.45081 3.75581C7.48149 3.28395 8.61563 3.16049 9.7098 3.40104C10.804 3.64159 11.809 4.23536 12.5979 5.10725C13.3867 5.97914 13.9239 7.08999 14.1416 8.29934C14.3592 9.50868 14.2475 10.7622 13.8206 11.9014C13.3937 13.0406 12.6707 14.0142 11.7431 14.6993C10.8155 15.3843 9.72498 15.75 8.60937 15.75C7.11391 15.7481 5.68018 15.0906 4.62273 13.9219C3.56528 12.7531 2.97046 11.1685 2.96877 9.5156Z" fill="#2E7E30"/>
</svg>
