<svg width="33" height="33" viewBox="0 0 33 33" fill="none" xmlns="http://www.w3.org/2000/svg">
<g clip-path="url(#clip0_138_303)">
<path d="M30.519 14.0203L26.2803 14.0355C25.8578 14.037 25.4877 13.7646 25.3564 13.3659C25.2227 12.9589 25.0606 12.5617 24.8713 12.1773C24.6903 11.807 24.7597 11.3625 25.0522 11.0668L28.0287 8.06921C28.1434 7.95355 28.1427 7.76677 28.0274 7.65216L25.1082 4.7542C24.993 4.63968 24.8065 4.64035 24.6918 4.75588L21.7259 7.74325C21.4318 8.03946 20.9844 8.11145 20.6113 7.92949C20.2233 7.73971 19.8224 7.5776 19.4115 7.44437C19.0132 7.31575 18.7395 6.94746 18.738 6.52607L18.7228 2.30859C18.7225 2.23045 18.6912 2.15561 18.6358 2.10055C18.5803 2.04549 18.5052 2.01471 18.4271 2.01498L14.3139 2.02977C14.2358 2.03006 14.1609 2.06138 14.1059 2.11684C14.0508 2.1723 14.02 2.24735 14.0203 2.3255L14.0358 6.63806C14.0373 7.04983 13.7785 7.41393 13.3945 7.55248C13.0086 7.69248 12.6362 7.85583 12.2799 8.04165C11.906 8.23658 11.4486 8.17095 11.1474 7.87192L8.06904 4.81565C8.0416 4.78837 8.00905 4.76677 7.97325 4.75208C7.93746 4.73739 7.89912 4.7299 7.86042 4.73004C7.82173 4.73018 7.78344 4.73795 7.74776 4.7529C7.71207 4.76786 7.67968 4.7897 7.65244 4.81718L4.75441 7.73581C4.72711 7.76327 4.7055 7.79584 4.6908 7.83166C4.6761 7.86748 4.6686 7.90584 4.66874 7.94456C4.66888 7.98328 4.67665 8.02159 4.69161 8.0573C4.70656 8.09302 4.72841 8.12543 4.75591 8.15269L7.93841 11.3124C8.22923 11.6002 8.30505 12.0366 8.13609 12.4058C7.9841 12.7386 7.85211 13.0802 7.7408 13.4287C7.61271 13.8285 7.24363 14.104 6.82083 14.1055L2.30861 14.1217C2.23047 14.122 2.15563 14.1533 2.10057 14.2088C2.04551 14.2642 2.01473 14.3393 2.015 14.4174L2.02979 18.5303C2.03008 18.6084 2.0614 18.6833 2.11686 18.7383C2.17231 18.7934 2.24737 18.8242 2.32552 18.8239L6.95343 18.8073C7.36415 18.8058 7.72728 19.0632 7.86765 19.4459C7.98285 19.76 8.11522 20.0675 8.26414 20.367C8.44775 20.7386 8.37901 21.1865 8.0848 21.4828L4.81548 24.7757C4.70093 24.891 4.7016 25.0773 4.81714 25.1921L7.73634 28.09C7.85162 28.2046 8.03795 28.2039 8.15272 28.0883L11.433 24.7844C11.7265 24.4897 12.1724 24.4169 12.544 24.5967C12.8417 24.7403 13.147 24.8677 13.4585 24.9783C13.8428 25.1158 14.1036 25.4771 14.105 25.8884L14.1218 30.5359C14.122 30.6141 14.1534 30.6889 14.2088 30.744C14.2643 30.799 14.3393 30.8298 14.4175 30.8296L18.5307 30.8148C18.6088 30.8145 18.6837 30.7832 18.7387 30.7277C18.7938 30.6722 18.8246 30.5972 18.8243 30.519L18.8079 25.9669C18.8064 25.5451 19.0777 25.1748 19.4752 25.043C19.8131 24.9308 20.1443 24.7994 20.4671 24.6492C20.8352 24.4775 21.2716 24.5501 21.5617 24.8381L24.7758 28.0288C24.891 28.1433 25.0775 28.1426 25.1921 28.0271L28.09 25.1086C28.2047 24.993 28.204 24.8064 28.0887 24.6919L24.979 21.6045C24.6786 21.3052 24.6098 20.8487 24.8018 20.474C24.9804 20.1247 25.1376 19.7606 25.273 19.3824C25.4109 18.9992 25.7717 18.7396 26.1819 18.7382L30.536 18.7225C30.6141 18.7222 30.6889 18.6909 30.744 18.6355C30.7991 18.58 30.8298 18.5049 30.8296 18.4268L30.8148 14.3139C30.8145 14.2358 30.7832 14.1609 30.7277 14.1059C30.6723 14.0508 30.5972 14.02 30.5191 14.0203L30.519 14.0203ZM30.5143 12.7112C31.4 12.708 32.1207 13.4235 32.1238 14.3092L32.1386 18.422C32.1418 19.3078 31.4263 20.0284 30.5406 20.0316L26.423 20.0464C26.3187 20.3188 26.2032 20.5867 26.0767 20.8496L29.0109 23.7628C29.6393 24.3866 29.6429 25.4018 29.0191 26.0307L26.1212 28.9492C25.4973 29.5781 24.4813 29.5818 23.8531 28.9576L20.8059 25.9325C20.5798 26.0316 20.3503 26.1229 20.1178 26.2061L20.1332 30.5143C20.1364 31.4 19.421 32.1207 18.5353 32.1238L14.4221 32.1386C13.5364 32.1418 12.8157 31.4264 12.8125 30.5406L12.7967 26.1296C12.5927 26.0519 12.3911 25.9678 12.1923 25.8775L9.08161 29.0107C8.45741 29.6394 7.44191 29.643 6.81375 29.0188L3.89474 26.1211C3.26604 25.4969 3.26239 24.4814 3.88659 23.8532L6.98623 20.7312C6.8917 20.5294 6.80366 20.3246 6.72224 20.1172L2.33013 20.133C1.44442 20.1362 0.723797 19.4207 0.720612 18.535L0.705825 14.4221C0.70264 13.5364 1.4181 12.8158 2.30381 12.8126L6.57121 12.7973C6.65529 12.5537 6.74829 12.3133 6.85003 12.0766L3.83348 9.08168C3.20481 8.45752 3.20116 7.44215 3.82536 6.81345L6.7232 3.89501C7.34707 3.26609 8.36257 3.26244 8.99127 3.88667L11.8948 6.76941C12.1664 6.63612 12.4437 6.51462 12.7258 6.40527L12.7111 2.33021C12.708 1.4445 13.4234 0.723874 14.3091 0.720689L18.4223 0.7059C19.308 0.702716 20.0287 1.41818 20.0318 2.30389L20.0461 6.2769C20.3588 6.38644 20.6662 6.51073 20.9671 6.64938L23.7626 3.83372C24.3865 3.20476 25.4025 3.20111 26.0307 3.82534L28.9499 6.7233C29.578 7.34744 29.5816 8.36249 28.9578 8.99135L26.1506 11.8185C26.2881 12.1149 26.4117 12.4176 26.521 12.7255L30.5143 12.7112L30.5143 12.7112ZM21.0034 16.2421C21.0129 18.8631 18.896 20.9952 16.2751 21.0046C13.6541 21.0141 11.522 18.8972 11.5126 16.2763C11.5032 13.6553 13.62 11.5232 16.241 11.5138C18.8619 11.5044 20.994 13.6212 21.0034 16.2421ZM19.6944 16.2469C19.6875 14.3489 18.1436 12.816 16.2457 12.8229C14.3477 12.8297 12.8149 14.3736 12.8217 16.2716C12.8285 18.1695 14.3724 19.7024 16.2704 19.6955C18.1684 19.6887 19.7012 18.1448 19.6944 16.2469Z" fill="#FAFDF8"/>
</g>
<defs>
<clipPath id="clip0_138_303">
<path d="M0.0588341 16.4812C0.0263409 7.44388 7.3262 0.0913349 16.3635 0.0588417C25.4009 0.0263485 32.7534 7.32621 32.7859 16.3635C32.8184 25.4009 25.5185 32.7534 16.4812 32.7859C7.44387 32.8184 0.0913272 25.5185 0.0588341 16.4812Z" fill="white"/>
</clipPath>
</defs>
</svg>
