<svg width="32" height="32" viewBox="0 0 32 32" fill="none" xmlns="http://www.w3.org/2000/svg">
<path d="M29.7075 13.5754L25.563 13.5903C25.1499 13.5918 24.7879 13.3254 24.6596 12.9356C24.5288 12.5376 24.3703 12.1493 24.1853 11.7734C24.0082 11.4113 24.0761 10.9767 24.3621 10.6876L27.2725 7.75661C27.3847 7.64352 27.384 7.4609 27.2712 7.34883L24.4169 4.51526C24.3042 4.40329 24.1219 4.40395 24.0098 4.51691L21.1097 7.43789C20.8222 7.72752 20.3847 7.79791 20.02 7.62C19.6406 7.43444 19.2485 7.27592 18.8468 7.14565C18.4573 7.01989 18.1897 6.65979 18.1882 6.24776L18.1734 2.12401C18.1731 2.0476 18.1425 1.97442 18.0883 1.92059C18.0341 1.86675 17.9607 1.83665 17.8842 1.83692L13.8625 1.85138C13.7861 1.85166 13.7129 1.88229 13.659 1.93651C13.6052 1.99074 13.5751 2.06413 13.5754 2.14054L13.5905 6.35726C13.592 6.75989 13.3389 7.11589 12.9635 7.25137C12.5861 7.38826 12.2221 7.54797 11.8737 7.72966C11.5081 7.92026 11.0608 7.85609 10.7663 7.56371L7.75637 4.57535C7.72954 4.54868 7.69772 4.52755 7.66272 4.51319C7.62771 4.49883 7.59023 4.49151 7.55239 4.49164C7.51456 4.49178 7.47712 4.49938 7.44223 4.514C7.40733 4.52862 7.37567 4.54998 7.34903 4.57685L4.5154 7.43062C4.48871 7.45747 4.46757 7.48931 4.4532 7.52434C4.43883 7.55936 4.4315 7.59688 4.43164 7.63473C4.43177 7.67259 4.43937 7.71005 4.454 7.74497C4.46862 7.77989 4.48998 7.81158 4.51686 7.83824L7.62865 10.9277C7.91301 11.2091 7.98713 11.6359 7.82193 11.9968C7.67332 12.3222 7.54426 12.6562 7.43543 12.997C7.31018 13.3879 6.9493 13.6573 6.5359 13.6587L2.12396 13.6746C2.04755 13.6749 1.97437 13.7055 1.92054 13.7597C1.8667 13.814 1.8366 13.8873 1.83687 13.9638L1.85133 17.9852C1.85161 18.0616 1.88223 18.1348 1.93646 18.1887C1.99069 18.2425 2.06408 18.2726 2.14049 18.2723L6.66555 18.2561C7.06714 18.2546 7.42221 18.5063 7.55946 18.8805C7.6721 19.1876 7.80152 19.4882 7.94714 19.7811C8.12666 20.1444 8.05946 20.5824 7.77178 20.8721L4.57512 24.0919C4.46311 24.2046 4.46377 24.3868 4.57674 24.4989L7.43107 27.3325C7.54378 27.4445 7.72597 27.4439 7.83819 27.3309L11.0456 24.1003C11.3325 23.8122 11.7685 23.7411 12.1318 23.9169C12.423 24.0572 12.7215 24.1818 13.0261 24.2899C13.4019 24.4243 13.6568 24.7776 13.6582 25.1798L13.6746 29.7241C13.6749 29.8005 13.7055 29.8737 13.7597 29.9275C13.8139 29.9813 13.8873 30.0114 13.9637 30.0112L17.9855 29.9967C18.0619 29.9964 18.1351 29.9658 18.1889 29.9116C18.2428 29.8574 18.2729 29.784 18.2726 29.7076L18.2566 25.2565C18.2551 24.8441 18.5204 24.4821 18.9091 24.3532C19.2395 24.2435 19.5633 24.115 19.879 23.9681C20.2388 23.8003 20.6656 23.8712 20.9492 24.1528L24.0918 27.2726C24.2045 27.3846 24.3869 27.384 24.499 27.271L27.3324 24.4174C27.4446 24.3043 27.4439 24.1219 27.3311 24.0099L24.2906 20.9911C23.9968 20.6985 23.9295 20.2522 24.1172 19.8857C24.2919 19.5442 24.4456 19.1882 24.5781 18.8184C24.7128 18.4437 25.0656 18.1899 25.4667 18.1885L29.724 18.1732C29.8004 18.1729 29.8736 18.1423 29.9275 18.088C29.9813 18.0338 30.0114 17.9604 30.0111 17.884L29.9967 13.8625C29.9964 13.7861 29.9658 13.713 29.9115 13.6591C29.8573 13.6053 29.7839 13.5752 29.7075 13.5755L29.7075 13.5754ZM29.7029 12.2954C30.5689 12.2923 31.2735 12.9919 31.2766 13.8579L31.2911 17.8794C31.2942 18.7454 30.5946 19.45 29.7286 19.4531L25.7024 19.4676C25.6005 19.734 25.4875 19.996 25.3638 20.253L28.2329 23.1015C28.8473 23.7114 28.8508 24.7041 28.2408 25.319L25.4074 28.1726C24.7974 28.7876 23.804 28.7911 23.1897 28.1808L20.2102 25.2229C19.9891 25.3199 19.7647 25.4091 19.5373 25.4904L19.5525 29.703C19.5556 30.569 18.856 31.2736 17.99 31.2767L13.9682 31.2912C13.1022 31.2943 12.3976 30.5947 12.3945 29.7287L12.379 25.4157C12.1795 25.3397 11.9824 25.2575 11.788 25.1692L8.74644 28.2327C8.13611 28.8474 7.14318 28.851 6.52898 28.2407L3.67484 25.4073C3.06011 24.797 3.05654 23.8041 3.66687 23.1898L6.69763 20.1372C6.6052 19.9399 6.51911 19.7397 6.4395 19.5369L2.145 19.5523C1.27897 19.5554 0.574357 18.8559 0.571243 17.9898L0.556784 13.9684C0.553671 13.1023 1.25324 12.3977 2.11926 12.3946L6.29183 12.3796C6.37404 12.1415 6.46497 11.9064 6.56445 11.675L3.61494 8.74658C3.00024 8.13629 2.99667 7.14348 3.60699 6.52875L6.44044 3.67517C7.05045 3.06022 8.04338 3.05665 8.65811 3.66701L11.4971 6.4857C11.7627 6.35536 12.0338 6.23657 12.3096 6.12965L12.2953 2.14514C12.2922 1.27912 12.9918 0.574503 13.8578 0.571389L17.8796 0.556929C18.7456 0.553815 19.4502 1.25338 19.4533 2.11941L19.4673 6.00413C19.7731 6.11123 20.0736 6.23277 20.3678 6.36833L23.1012 3.61524C23.7113 3.00026 24.7047 2.99669 25.3189 3.60705L28.1732 6.44061C28.7873 7.05088 28.7909 8.04337 28.1809 8.65826L25.4361 11.4226C25.5706 11.7124 25.6914 12.0084 25.7983 12.3095L29.7028 12.2954L29.7029 12.2954ZM20.4033 15.7479C20.4126 18.3106 18.3428 20.3954 15.7801 20.4046C13.2174 20.4138 11.1326 18.344 11.1234 15.7813C11.1142 13.2186 13.184 11.1339 15.7467 11.1246C18.3094 11.1154 20.3941 13.1852 20.4033 15.7479ZM19.1234 15.7525C19.1167 13.8967 17.6071 12.398 15.7513 12.4046C13.8955 12.4113 12.3967 13.9209 12.4034 15.7767C12.4101 17.6325 13.9197 19.1313 15.7755 19.1246C17.6313 19.1179 19.13 17.6083 19.1234 15.7525Z" fill="#343633"/>
</svg>
