<svg width="20" height="15" viewBox="0 0 20 15" fill="none" xmlns="http://www.w3.org/2000/svg">
<path fill-rule="evenodd" clip-rule="evenodd" d="M13.3401 6.66799L8.32627 4.06256C8.32627 4.06256 6.93359 3.40425 6.93359 4.64177V10.4313C6.93359 10.4313 6.95936 11.3144 8.32627 10.7207C9.27735 10.3074 13.3401 8.11526 13.3401 8.11526C13.3401 8.11526 14.3766 7.42492 13.3401 6.66799M19.4681 12.4576C18.8471 14.2938 17.5187 14.5304 16.4042 14.7734C14.7613 15.1316 4.19152 15.0866 2.47692 14.4838C1.40785 14.1081 0.750036 13.9464 0.24873 11.2997C-0.072231 9.60611 -0.0934197 4.62377 0.24873 2.90492C0.580044 1.24063 1.41218 0.459178 3.03408 0.299483C7.39053 -0.129541 14.6722 -0.0689672 16.9611 0.299483C19.0831 0.6409 19.5266 1.95651 19.7467 3.19427C20.103 5.19822 20.1449 10.4561 19.4681 12.4576" fill="#FAFDF8"/>
</svg>
